M48
; DRILL file {KiCad 7.0.1-0} date 2023 April 24, Monday 13:38:07
; FORMAT={-:-/ absolute / inch / decimal}
; #@! TF.CreationDate,2023-04-24T13:38:07-07:00
; #@! TF.GenerationSoftware,Kicad,Pcbnew,7.0.1-0
; #@! TF.FileFunction,Plated,1,2,PTH
FMAT,2
INCH
; #@! TA.AperFunction,Plated,PTH,ViaDrill
T1C0.0197
; #@! TA.AperFunction,Plated,PTH,ViaDrill
T2C0.0236
; #@! TA.AperFunction,Plated,PTH,ComponentDrill
T3C0.0315
; #@! TA.AperFunction,Plated,PTH,ComponentDrill
T4C0.0394
; #@! TA.AperFunction,Plated,PTH,ComponentDrill
T5C0.0402
; #@! TA.AperFunction,Plated,PTH,ComponentDrill
T6C0.0472
%
G90
G05
T1
X8.5472Y-4.0512
X8.5748Y-4.2008
T2
X5.9744Y-3.1398
X6.1614Y-3.2087
T3
X6.2992Y-2.8346
X6.2992Y-3.0315
X7.1803Y-4.1811
X7.2803Y-4.1811
X7.3803Y-3.6811
X7.3803Y-4.1811
X7.4803Y-3.6811
X7.4803Y-4.1811
X7.5803Y-3.6811
X7.5803Y-4.1811
X7.6803Y-3.6811
X7.6803Y-4.1811
X7.7559Y-3.0315
X7.7559Y-3.2283
X7.7803Y-3.6811
X7.7803Y-4.1811
X7.8803Y-4.1811
X7.9677Y-3.0315
X7.9677Y-3.1315
X7.9677Y-3.2315
X7.9677Y-3.3315
X7.9803Y-4.1811
X8.2677Y-3.0315
X8.2677Y-3.1315
X8.2677Y-3.2315
X8.2677Y-3.3315
X8.2677Y-3.5039
X8.2677Y-3.7008
T4
X7.4803Y-2.5591
X7.4803Y-2.6591
X7.4803Y-2.7591
T5
X6.0008Y-3.6417
X6.0008Y-4.2421
X6.1008Y-3.6417
X6.1008Y-4.2421
X6.2008Y-3.6417
X6.2008Y-4.2421
X6.3008Y-3.6417
X6.3008Y-4.2421
X6.4008Y-3.6417
X6.4008Y-4.2421
X6.5008Y-3.6417
X6.5008Y-4.2421
X6.6008Y-3.6417
X6.6008Y-4.2421
T6
X8.9357Y-2.9539
X8.9357Y-3.1039
X8.9357Y-3.2539
X8.9357Y-3.4039
X8.9357Y-3.8988
X8.9357Y-4.0488
X8.9357Y-4.1988
X8.9357Y-4.3488
T0
M30
