%TF.GenerationSoftware,KiCad,Pcbnew,7.0.1-0*%
%TF.CreationDate,2023-04-24T13:37:36-07:00*%
%TF.ProjectId,project,70726f6a-6563-4742-9e6b-696361645f70,rev?*%
%TF.SameCoordinates,Original*%
%TF.FileFunction,Soldermask,Top*%
%TF.FilePolarity,Negative*%
%FSLAX46Y46*%
G04 Gerber Fmt 4.6, Leading zero omitted, Abs format (unit mm)*
G04 Created by KiCad (PCBNEW 7.0.1-0) date 2023-04-24 13:37:36*
%MOMM*%
%LPD*%
G01*
G04 APERTURE LIST*
G04 Aperture macros list*
%AMRoundRect*
0 Rectangle with rounded corners*
0 $1 Rounding radius*
0 $2 $3 $4 $5 $6 $7 $8 $9 X,Y pos of 4 corners*
0 Add a 4 corners polygon primitive as box body*
4,1,4,$2,$3,$4,$5,$6,$7,$8,$9,$2,$3,0*
0 Add four circle primitives for the rounded corners*
1,1,$1+$1,$2,$3*
1,1,$1+$1,$4,$5*
1,1,$1+$1,$6,$7*
1,1,$1+$1,$8,$9*
0 Add four rect primitives between the rounded corners*
20,1,$1+$1,$2,$3,$4,$5,0*
20,1,$1+$1,$4,$5,$6,$7,0*
20,1,$1+$1,$6,$7,$8,$9,0*
20,1,$1+$1,$8,$9,$2,$3,0*%
G04 Aperture macros list end*
%TA.AperFunction,Profile*%
%ADD10C,0.050000*%
%TD*%
%ADD11C,1.701600*%
%ADD12RoundRect,0.300800X1.550000X-0.650000X1.550000X0.650000X-1.550000X0.650000X-1.550000X-0.650000X0*%
%ADD13O,3.701600X1.901600*%
%ADD14RoundRect,0.050800X-0.800000X-0.800000X0.800000X-0.800000X0.800000X0.800000X-0.800000X0.800000X0*%
%ADD15O,1.701600X1.701600*%
%ADD16C,3.601600*%
%ADD17O,1.301600X2.101600*%
%ADD18RoundRect,0.050800X-0.450000X0.750000X-0.450000X-0.750000X0.450000X-0.750000X0.450000X0.750000X0*%
%ADD19O,1.501600X2.301600*%
%ADD20RoundRect,0.050800X1.150000X-0.750000X1.150000X0.750000X-1.150000X0.750000X-1.150000X-0.750000X0*%
%ADD21O,2.401600X1.601600*%
G04 APERTURE END LIST*
D10*
%TO.C,X1*%
X148000000Y-71000000D02*
X148000000Y-94000000D01*
X148000000Y-106000000D02*
X148000000Y-111500000D01*
X151000000Y-68000000D02*
X156000000Y-68000000D01*
X151000000Y-97000000D02*
X151000000Y-103000000D01*
X156000000Y-114500000D02*
X151000000Y-114500000D01*
X159000000Y-65000000D02*
X159000000Y-63000000D01*
X159000000Y-117500000D02*
X159000000Y-120000000D01*
X162000000Y-60000000D02*
X217000000Y-60000000D01*
X162000000Y-123000000D02*
X165500000Y-123000000D01*
X168500000Y-118000000D02*
X168500000Y-120000000D01*
X200000000Y-114500000D02*
X172000000Y-114500000D01*
X203000000Y-120000000D02*
X203000000Y-117500000D01*
X214000000Y-123000000D02*
X206000000Y-123000000D01*
X217000000Y-123000000D02*
X214000000Y-123000000D01*
X220000000Y-63000000D02*
X220000000Y-65000000D01*
X220000000Y-117500000D02*
X220000000Y-120000000D01*
X223000000Y-68000000D02*
X228000000Y-68000000D01*
X228000000Y-114500000D02*
X223000000Y-114500000D01*
X231000000Y-71000000D02*
X231000000Y-111500000D01*
X151000000Y-68000000D02*
G75*
G03*
X148000000Y-71000000I0J-3000000D01*
G01*
X150000000Y-104000000D02*
G75*
G03*
X148000000Y-106000000I-1J-1999999D01*
G01*
X148000000Y-94000000D02*
G75*
G03*
X150000000Y-96000000I2000000J0D01*
G01*
X151000000Y-97000000D02*
G75*
G03*
X150000000Y-96000000I-1000000J0D01*
G01*
X150000000Y-104000000D02*
G75*
G03*
X151000000Y-103000000I0J1000000D01*
G01*
X148000000Y-111500000D02*
G75*
G03*
X151000000Y-114500000I3000000J0D01*
G01*
X159000000Y-117500000D02*
G75*
G03*
X156000000Y-114500000I-3000000J0D01*
G01*
X162000000Y-60000000D02*
G75*
G03*
X159000000Y-63000000I0J-3000000D01*
G01*
X156000000Y-68000000D02*
G75*
G03*
X159000000Y-65000000I0J3000000D01*
G01*
X159000000Y-120000000D02*
G75*
G03*
X162000000Y-123000000I3000000J0D01*
G01*
X172000000Y-114500000D02*
G75*
G03*
X168500000Y-118000000I0J-3500000D01*
G01*
X165500000Y-123000000D02*
G75*
G03*
X168500000Y-120000000I0J3000000D01*
G01*
X203000000Y-117500000D02*
G75*
G03*
X200000000Y-114500000I-3000000J0D01*
G01*
X203000000Y-120000000D02*
G75*
G03*
X206000000Y-123000000I3000000J0D01*
G01*
X220000000Y-63000000D02*
G75*
G03*
X217000000Y-60000000I-3000000J0D01*
G01*
X223000000Y-114500000D02*
G75*
G03*
X220000000Y-117500000I0J-3000000D01*
G01*
X217000000Y-123000000D02*
G75*
G03*
X220000000Y-120000000I0J3000000D01*
G01*
X220000000Y-65000000D02*
G75*
G03*
X223000000Y-68000000I3000000J0D01*
G01*
X231000000Y-71000000D02*
G75*
G03*
X228000000Y-68000000I-3000000J0D01*
G01*
X228000000Y-114500000D02*
G75*
G03*
X231000000Y-111500000I0J3000000D01*
G01*
%TD*%
D11*
%TO.C,C3*%
X160000000Y-72000000D03*
X160000000Y-77000000D03*
%TD*%
%TO.C,C2*%
X210000000Y-89000000D03*
X210000000Y-94000000D03*
%TD*%
D12*
%TO.C,J2*%
X226967500Y-110460000D03*
D13*
X226967500Y-106650000D03*
X226967500Y-102840000D03*
X226967500Y-99030000D03*
%TD*%
D14*
%TO.C,U1*%
X202380000Y-77000000D03*
D15*
X202380000Y-79540000D03*
X202380000Y-82080000D03*
X202380000Y-84620000D03*
X210000000Y-84620000D03*
X210000000Y-82080000D03*
X210000000Y-79540000D03*
X210000000Y-77000000D03*
%TD*%
D16*
%TO.C,X1*%
X162000000Y-63000000D03*
X162000000Y-120000000D03*
X217000000Y-63000000D03*
X217000000Y-120000000D03*
%TD*%
D17*
%TO.C,U4*%
X182380000Y-106200000D03*
X184920000Y-106200000D03*
X187460000Y-106200000D03*
X190000000Y-106200000D03*
X192540000Y-106200000D03*
X195080000Y-106200000D03*
X197620000Y-106200000D03*
X200160000Y-106200000D03*
X202700000Y-106200000D03*
X197620000Y-93500000D03*
X195080000Y-93500000D03*
X192540000Y-93500000D03*
X190000000Y-93500000D03*
X187460000Y-93500000D03*
%TD*%
D18*
%TO.C,D1*%
X154650000Y-72050000D03*
X151350000Y-72050000D03*
X151350000Y-76950000D03*
X154650000Y-76950000D03*
%TD*%
D19*
%TO.C,U3*%
X152420000Y-107750000D03*
X154960000Y-107750000D03*
X157500000Y-107750000D03*
X160040000Y-107750000D03*
X162580000Y-107750000D03*
X165120000Y-107750000D03*
X167660000Y-107750000D03*
X167660000Y-92500000D03*
X165120000Y-92500000D03*
X162580000Y-92500000D03*
X160040000Y-92500000D03*
X157500000Y-92500000D03*
X154960000Y-92500000D03*
X152420000Y-92500000D03*
%TD*%
D20*
%TO.C,U2*%
X190000000Y-70080000D03*
D21*
X190000000Y-67540000D03*
X190000000Y-65000000D03*
%TD*%
D13*
%TO.C,J1*%
X226967500Y-75030000D03*
X226967500Y-78840000D03*
X226967500Y-82650000D03*
D12*
X226967500Y-86460000D03*
%TD*%
D11*
%TO.C,C1*%
X197000000Y-82000000D03*
X197000000Y-77000000D03*
%TD*%
M02*
