%TF.GenerationSoftware,KiCad,Pcbnew,7.0.1-0*%
%TF.CreationDate,2023-04-24T13:37:36-07:00*%
%TF.ProjectId,project,70726f6a-6563-4742-9e6b-696361645f70,rev?*%
%TF.SameCoordinates,Original*%
%TF.FileFunction,Copper,L2,Bot*%
%TF.FilePolarity,Positive*%
%FSLAX46Y46*%
G04 Gerber Fmt 4.6, Leading zero omitted, Abs format (unit mm)*
G04 Created by KiCad (PCBNEW 7.0.1-0) date 2023-04-24 13:37:36*
%MOMM*%
%LPD*%
G01*
G04 APERTURE LIST*
G04 Aperture macros list*
%AMRoundRect*
0 Rectangle with rounded corners*
0 $1 Rounding radius*
0 $2 $3 $4 $5 $6 $7 $8 $9 X,Y pos of 4 corners*
0 Add a 4 corners polygon primitive as box body*
4,1,4,$2,$3,$4,$5,$6,$7,$8,$9,$2,$3,0*
0 Add four circle primitives for the rounded corners*
1,1,$1+$1,$2,$3*
1,1,$1+$1,$4,$5*
1,1,$1+$1,$6,$7*
1,1,$1+$1,$8,$9*
0 Add four rect primitives between the rounded corners*
20,1,$1+$1,$2,$3,$4,$5,0*
20,1,$1+$1,$4,$5,$6,$7,0*
20,1,$1+$1,$6,$7,$8,$9,0*
20,1,$1+$1,$8,$9,$2,$3,0*%
G04 Aperture macros list end*
%TA.AperFunction,ComponentPad*%
%ADD10C,1.600000*%
%TD*%
%TA.AperFunction,ComponentPad*%
%ADD11RoundRect,0.250000X1.550000X-0.650000X1.550000X0.650000X-1.550000X0.650000X-1.550000X-0.650000X0*%
%TD*%
%TA.AperFunction,ComponentPad*%
%ADD12O,3.600000X1.800000*%
%TD*%
%TA.AperFunction,ComponentPad*%
%ADD13R,1.600000X1.600000*%
%TD*%
%TA.AperFunction,ComponentPad*%
%ADD14O,1.600000X1.600000*%
%TD*%
%TA.AperFunction,ComponentPad*%
%ADD15O,1.200000X2.000000*%
%TD*%
%TA.AperFunction,ComponentPad*%
%ADD16O,1.400000X2.200000*%
%TD*%
%TA.AperFunction,ComponentPad*%
%ADD17R,2.300000X1.500000*%
%TD*%
%TA.AperFunction,ComponentPad*%
%ADD18O,2.300000X1.500000*%
%TD*%
%TA.AperFunction,ViaPad*%
%ADD19C,0.800000*%
%TD*%
%TA.AperFunction,ViaPad*%
%ADD20C,1.400000*%
%TD*%
%TA.AperFunction,Conductor*%
%ADD21C,0.300000*%
%TD*%
G04 APERTURE END LIST*
D10*
%TO.P,C3,1*%
%TO.N,+3.3V*%
X160000000Y-72000000D03*
%TO.P,C3,2*%
%TO.N,GND*%
X160000000Y-77000000D03*
%TD*%
%TO.P,C2,1*%
%TO.N,+3.3V*%
X210000000Y-89000000D03*
%TO.P,C2,2*%
%TO.N,GND*%
X210000000Y-94000000D03*
%TD*%
D11*
%TO.P,J2,1,Pin_1*%
%TO.N,+3.3V*%
X226967500Y-110460000D03*
D12*
%TO.P,J2,2,Pin_2*%
%TO.N,GPS_TX*%
X226967500Y-106650000D03*
%TO.P,J2,3,Pin_3*%
%TO.N,GPS_RX*%
X226967500Y-102840000D03*
%TO.P,J2,4,Pin_4*%
%TO.N,GND*%
X226967500Y-99030000D03*
%TD*%
D13*
%TO.P,U1,1,TXD*%
%TO.N,CAN_TX*%
X202380000Y-77000000D03*
D14*
%TO.P,U1,2,VSS*%
%TO.N,GND*%
X202380000Y-79540000D03*
%TO.P,U1,3,VDD*%
%TO.N,+5V*%
X202380000Y-82080000D03*
%TO.P,U1,4,RXD*%
%TO.N,CAN_RX*%
X202380000Y-84620000D03*
%TO.P,U1,5,Vio*%
%TO.N,+3.3V*%
X210000000Y-84620000D03*
%TO.P,U1,6,CANL*%
%TO.N,/CANL*%
X210000000Y-82080000D03*
%TO.P,U1,7,CANH*%
%TO.N,/CANH*%
X210000000Y-79540000D03*
%TO.P,U1,8,STBY*%
%TO.N,GND*%
X210000000Y-77000000D03*
%TD*%
D15*
%TO.P,U4,1,VIN*%
%TO.N,+3.3V*%
X182380000Y-106200000D03*
%TO.P,U4,2,3.3V*%
%TO.N,unconnected-(U4-3.3V-Pad2)*%
X184920000Y-106200000D03*
%TO.P,U4,3,GND*%
%TO.N,GND*%
X187460000Y-106200000D03*
%TO.P,U4,4,SCL*%
%TO.N,SCL*%
X190000000Y-106200000D03*
%TO.P,U4,5,SDA*%
%TO.N,SDA*%
X192540000Y-106200000D03*
%TO.P,U4,6,DO*%
%TO.N,unconnected-(U4-DO-Pad6)*%
X195080000Y-106200000D03*
%TO.P,U4,7,CS*%
%TO.N,unconnected-(U4-CS-Pad7)*%
X197620000Y-106200000D03*
%TO.P,U4,8,INT1*%
%TO.N,INT1*%
X200160000Y-106200000D03*
%TO.P,U4,9,INT2*%
%TO.N,INT2*%
X202700000Y-106200000D03*
%TO.P,U4,10,GND*%
%TO.N,GND*%
X197620000Y-93500000D03*
%TO.P,U4,11,NC*%
%TO.N,unconnected-(U4-NC-Pad11)*%
X195080000Y-93500000D03*
%TO.P,U4,12,NC*%
%TO.N,unconnected-(U4-NC-Pad12)*%
X192540000Y-93500000D03*
%TO.P,U4,13,SDX*%
%TO.N,unconnected-(U4-SDX-Pad13)*%
X190000000Y-93500000D03*
%TO.P,U4,14,SCX*%
%TO.N,unconnected-(U4-SCX-Pad14)*%
X187460000Y-93500000D03*
%TD*%
D16*
%TO.P,U3,1,D0*%
%TO.N,GPS_TX*%
X152420000Y-107750000D03*
%TO.P,U3,2,D1*%
%TO.N,GPS_RX*%
X154960000Y-107750000D03*
%TO.P,U3,3,D2*%
%TO.N,INT2*%
X157500000Y-107750000D03*
%TO.P,U3,4,D3*%
%TO.N,INT1*%
X160040000Y-107750000D03*
%TO.P,U3,5,D4*%
%TO.N,SDA*%
X162580000Y-107750000D03*
%TO.P,U3,6,D5*%
%TO.N,SCL*%
X165120000Y-107750000D03*
%TO.P,U3,7,D6*%
%TO.N,unconnected-(U3-D6-Pad7)*%
X167660000Y-107750000D03*
%TO.P,U3,8,D7*%
%TO.N,CAN_TX*%
X167660000Y-92500000D03*
%TO.P,U3,9,D8*%
%TO.N,CAN_RX*%
X165120000Y-92500000D03*
%TO.P,U3,10,D9*%
%TO.N,unconnected-(U3-D9-Pad10)*%
X162580000Y-92500000D03*
%TO.P,U3,11,D10*%
%TO.N,LED*%
X160040000Y-92500000D03*
%TO.P,U3,12,3V3*%
%TO.N,+3.3V*%
X157500000Y-92500000D03*
%TO.P,U3,13,GND*%
%TO.N,GND*%
X154960000Y-92500000D03*
%TO.P,U3,14,5V*%
%TO.N,+5V*%
X152420000Y-92500000D03*
%TD*%
D17*
%TO.P,U2,1,IN*%
%TO.N,+12V*%
X190000000Y-70080000D03*
D18*
%TO.P,U2,2,GND*%
%TO.N,GND*%
X190000000Y-67540000D03*
%TO.P,U2,3,OUT*%
%TO.N,+5V*%
X190000000Y-65000000D03*
%TD*%
D12*
%TO.P,J1,4,Pin_4*%
%TO.N,+12V*%
X226967500Y-75030000D03*
%TO.P,J1,3,Pin_3*%
%TO.N,/CANH*%
X226967500Y-78840000D03*
%TO.P,J1,2,Pin_2*%
%TO.N,/CANL*%
X226967500Y-82650000D03*
D11*
%TO.P,J1,1,Pin_1*%
%TO.N,GND*%
X226967500Y-86460000D03*
%TD*%
D10*
%TO.P,C1,1*%
%TO.N,+5V*%
X197000000Y-82000000D03*
%TO.P,C1,2*%
%TO.N,GND*%
X197000000Y-77000000D03*
%TD*%
D19*
%TO.N,GPS_TX*%
X217800000Y-106700000D03*
%TO.N,GPS_RX*%
X217100000Y-102900000D03*
D20*
%TO.N,GND*%
X151750000Y-79750000D03*
%TO.N,LED*%
X156500000Y-81500000D03*
%TD*%
D21*
%TO.N,GPS_TX*%
X217800000Y-106700000D02*
X217850000Y-106650000D01*
X217850000Y-106650000D02*
X226967500Y-106650000D01*
%TO.N,GPS_RX*%
X217100000Y-102900000D02*
X217160000Y-102840000D01*
X217160000Y-102840000D02*
X226967500Y-102840000D01*
%TO.N,LED*%
X160040000Y-85040000D02*
X160040000Y-92500000D01*
X156500000Y-81500000D02*
X160040000Y-85040000D01*
%TD*%
%TA.AperFunction,Conductor*%
%TO.N,GND*%
G36*
X211938000Y-61017113D02*
G01*
X211983387Y-61062500D01*
X212000000Y-61124500D01*
X212000000Y-69000000D01*
X222803917Y-69000000D01*
X222814731Y-69000500D01*
X222815046Y-69000500D01*
X222898259Y-69000500D01*
X223000000Y-69000500D01*
X223092710Y-69000500D01*
X227907290Y-69000500D01*
X227995933Y-69000500D01*
X228004043Y-69000765D01*
X228252895Y-69017075D01*
X228268953Y-69019190D01*
X228476105Y-69060395D01*
X228509535Y-69067045D01*
X228525202Y-69071243D01*
X228694947Y-69128863D01*
X228757481Y-69150091D01*
X228772458Y-69156294D01*
X228906741Y-69222515D01*
X228992460Y-69264787D01*
X229006508Y-69272897D01*
X229210464Y-69409177D01*
X229223328Y-69419048D01*
X229407749Y-69580781D01*
X229419218Y-69592250D01*
X229537669Y-69727318D01*
X229580951Y-69776671D01*
X229590825Y-69789539D01*
X229727102Y-69993492D01*
X229735212Y-70007539D01*
X229843702Y-70227534D01*
X229849909Y-70242520D01*
X229928756Y-70474797D01*
X229932954Y-70490464D01*
X229980807Y-70731035D01*
X229982925Y-70747116D01*
X229999235Y-70995957D01*
X229999500Y-71004067D01*
X229999500Y-111495933D01*
X229999235Y-111504043D01*
X229982925Y-111752883D01*
X229980807Y-111768964D01*
X229932954Y-112009535D01*
X229928756Y-112025202D01*
X229849909Y-112257479D01*
X229843702Y-112272465D01*
X229735212Y-112492460D01*
X229727102Y-112506507D01*
X229590825Y-112710460D01*
X229580951Y-112723328D01*
X229419218Y-112907749D01*
X229407749Y-112919218D01*
X229223328Y-113080951D01*
X229210460Y-113090825D01*
X229006507Y-113227102D01*
X228992460Y-113235212D01*
X228772465Y-113343702D01*
X228757479Y-113349909D01*
X228525202Y-113428756D01*
X228509535Y-113432954D01*
X228268964Y-113480807D01*
X228252883Y-113482925D01*
X228004043Y-113499235D01*
X227995933Y-113499500D01*
X222814731Y-113499500D01*
X222803917Y-113500000D01*
X200196083Y-113500000D01*
X200185269Y-113499500D01*
X200184954Y-113499500D01*
X200101741Y-113499500D01*
X172092710Y-113499500D01*
X172000000Y-113499500D01*
X171803504Y-113499500D01*
X171803182Y-113499528D01*
X171792376Y-113500000D01*
X156196083Y-113500000D01*
X156185269Y-113499500D01*
X156184954Y-113499500D01*
X156101741Y-113499500D01*
X151004067Y-113499500D01*
X150995957Y-113499235D01*
X150747116Y-113482925D01*
X150731035Y-113480807D01*
X150490464Y-113432954D01*
X150474797Y-113428756D01*
X150242520Y-113349909D01*
X150227534Y-113343702D01*
X150007539Y-113235212D01*
X149993492Y-113227102D01*
X149789539Y-113090825D01*
X149776671Y-113080951D01*
X149592250Y-112919218D01*
X149580781Y-112907749D01*
X149519648Y-112838040D01*
X149419045Y-112723325D01*
X149409174Y-112710460D01*
X149272897Y-112506507D01*
X149264787Y-112492460D01*
X149227522Y-112416895D01*
X149156294Y-112272458D01*
X149150090Y-112257479D01*
X149071243Y-112025202D01*
X149067045Y-112009535D01*
X149035311Y-111849999D01*
X149019190Y-111768953D01*
X149017075Y-111752895D01*
X149000765Y-111504043D01*
X149000500Y-111495933D01*
X149000500Y-111160008D01*
X224667000Y-111160008D01*
X224677500Y-111262796D01*
X224732686Y-111429334D01*
X224824788Y-111578657D01*
X224948842Y-111702711D01*
X224948844Y-111702712D01*
X225098166Y-111794814D01*
X225209516Y-111831712D01*
X225264702Y-111849999D01*
X225275202Y-111851071D01*
X225367491Y-111860500D01*
X228567508Y-111860499D01*
X228670297Y-111849999D01*
X228836834Y-111794814D01*
X228986156Y-111702712D01*
X229110212Y-111578656D01*
X229202314Y-111429334D01*
X229257499Y-111262797D01*
X229268000Y-111160009D01*
X229267999Y-109759992D01*
X229257499Y-109657203D01*
X229202314Y-109490666D01*
X229145092Y-109397895D01*
X229110211Y-109341342D01*
X228986157Y-109217288D01*
X228836834Y-109125186D01*
X228670297Y-109070000D01*
X228567509Y-109059500D01*
X225367491Y-109059500D01*
X225264703Y-109070000D01*
X225098165Y-109125186D01*
X224948842Y-109217288D01*
X224824788Y-109341342D01*
X224732686Y-109490665D01*
X224677500Y-109657202D01*
X224667000Y-109759990D01*
X224667000Y-111160008D01*
X149000500Y-111160008D01*
X149000500Y-108205504D01*
X151219500Y-108205504D01*
X151234884Y-108371537D01*
X151295769Y-108585526D01*
X151394941Y-108784688D01*
X151529019Y-108962237D01*
X151693437Y-109112124D01*
X151882595Y-109229245D01*
X151882597Y-109229245D01*
X151882599Y-109229247D01*
X152090060Y-109309618D01*
X152308757Y-109350500D01*
X152531241Y-109350500D01*
X152531243Y-109350500D01*
X152749940Y-109309618D01*
X152957401Y-109229247D01*
X153146562Y-109112124D01*
X153310981Y-108962236D01*
X153445058Y-108784689D01*
X153544229Y-108585528D01*
X153570734Y-108492374D01*
X153603133Y-108437820D01*
X153658275Y-108406435D01*
X153721725Y-108406435D01*
X153776867Y-108437820D01*
X153809266Y-108492374D01*
X153835769Y-108585526D01*
X153934941Y-108784688D01*
X154069019Y-108962237D01*
X154233437Y-109112124D01*
X154422595Y-109229245D01*
X154422597Y-109229245D01*
X154422599Y-109229247D01*
X154630060Y-109309618D01*
X154848757Y-109350500D01*
X155071241Y-109350500D01*
X155071243Y-109350500D01*
X155289940Y-109309618D01*
X155497401Y-109229247D01*
X155686562Y-109112124D01*
X155850981Y-108962236D01*
X155985058Y-108784689D01*
X156084229Y-108585528D01*
X156110734Y-108492374D01*
X156143133Y-108437820D01*
X156198275Y-108406435D01*
X156261725Y-108406435D01*
X156316867Y-108437820D01*
X156349266Y-108492374D01*
X156375769Y-108585526D01*
X156474941Y-108784688D01*
X156609019Y-108962237D01*
X156773437Y-109112124D01*
X156962595Y-109229245D01*
X156962597Y-109229245D01*
X156962599Y-109229247D01*
X157170060Y-109309618D01*
X157388757Y-109350500D01*
X157611241Y-109350500D01*
X157611243Y-109350500D01*
X157829940Y-109309618D01*
X158037401Y-109229247D01*
X158226562Y-109112124D01*
X158390981Y-108962236D01*
X158525058Y-108784689D01*
X158624229Y-108585528D01*
X158650734Y-108492374D01*
X158683133Y-108437820D01*
X158738275Y-108406435D01*
X158801725Y-108406435D01*
X158856867Y-108437820D01*
X158889266Y-108492374D01*
X158915769Y-108585526D01*
X159014941Y-108784688D01*
X159149019Y-108962237D01*
X159313437Y-109112124D01*
X159502595Y-109229245D01*
X159502597Y-109229245D01*
X159502599Y-109229247D01*
X159710060Y-109309618D01*
X159928757Y-109350500D01*
X160151241Y-109350500D01*
X160151243Y-109350500D01*
X160369940Y-109309618D01*
X160577401Y-109229247D01*
X160766562Y-109112124D01*
X160930981Y-108962236D01*
X161065058Y-108784689D01*
X161164229Y-108585528D01*
X161190734Y-108492374D01*
X161223133Y-108437820D01*
X161278275Y-108406435D01*
X161341725Y-108406435D01*
X161396867Y-108437820D01*
X161429266Y-108492374D01*
X161455769Y-108585526D01*
X161554941Y-108784688D01*
X161689019Y-108962237D01*
X161853437Y-109112124D01*
X162042595Y-109229245D01*
X162042597Y-109229245D01*
X162042599Y-109229247D01*
X162250060Y-109309618D01*
X162468757Y-109350500D01*
X162691241Y-109350500D01*
X162691243Y-109350500D01*
X162909940Y-109309618D01*
X163117401Y-109229247D01*
X163306562Y-109112124D01*
X163470981Y-108962236D01*
X163605058Y-108784689D01*
X163704229Y-108585528D01*
X163730734Y-108492374D01*
X163763133Y-108437820D01*
X163818275Y-108406435D01*
X163881725Y-108406435D01*
X163936867Y-108437820D01*
X163969266Y-108492374D01*
X163995769Y-108585526D01*
X164094941Y-108784688D01*
X164229019Y-108962237D01*
X164393437Y-109112124D01*
X164582595Y-109229245D01*
X164582597Y-109229245D01*
X164582599Y-109229247D01*
X164790060Y-109309618D01*
X165008757Y-109350500D01*
X165231241Y-109350500D01*
X165231243Y-109350500D01*
X165449940Y-109309618D01*
X165657401Y-109229247D01*
X165846562Y-109112124D01*
X166010981Y-108962236D01*
X166145058Y-108784689D01*
X166244229Y-108585528D01*
X166270734Y-108492374D01*
X166303133Y-108437820D01*
X166358275Y-108406435D01*
X166421725Y-108406435D01*
X166476867Y-108437820D01*
X166509266Y-108492374D01*
X166535769Y-108585526D01*
X166634941Y-108784688D01*
X166769019Y-108962237D01*
X166933437Y-109112124D01*
X167122595Y-109229245D01*
X167122597Y-109229245D01*
X167122599Y-109229247D01*
X167330060Y-109309618D01*
X167548757Y-109350500D01*
X167771241Y-109350500D01*
X167771243Y-109350500D01*
X167989940Y-109309618D01*
X168197401Y-109229247D01*
X168386562Y-109112124D01*
X168550981Y-108962236D01*
X168685058Y-108784689D01*
X168784229Y-108585528D01*
X168835186Y-108406435D01*
X168845115Y-108371537D01*
X168860500Y-108205504D01*
X168860500Y-107294496D01*
X168845115Y-107128462D01*
X168784230Y-106914473D01*
X168685058Y-106715311D01*
X168637569Y-106652425D01*
X181279500Y-106652425D01*
X181284529Y-106705086D01*
X181294472Y-106809220D01*
X181353683Y-107010873D01*
X181449990Y-107197684D01*
X181579906Y-107362884D01*
X181738745Y-107500520D01*
X181920754Y-107605603D01*
X181920756Y-107605604D01*
X182014241Y-107637959D01*
X182119366Y-107674344D01*
X182154298Y-107679366D01*
X182327398Y-107704254D01*
X182537330Y-107694254D01*
X182741576Y-107644704D01*
X182838369Y-107600500D01*
X182932752Y-107557397D01*
X183012624Y-107500520D01*
X183103952Y-107435486D01*
X183248986Y-107283378D01*
X183362613Y-107106572D01*
X183440725Y-106911457D01*
X183478529Y-106715311D01*
X183480500Y-106705086D01*
X183480500Y-106652425D01*
X183819500Y-106652425D01*
X183824529Y-106705086D01*
X183834472Y-106809220D01*
X183893683Y-107010873D01*
X183989990Y-107197684D01*
X184119906Y-107362884D01*
X184278745Y-107500520D01*
X184460754Y-107605603D01*
X184460756Y-107605604D01*
X184554241Y-107637959D01*
X184659366Y-107674344D01*
X184694298Y-107679366D01*
X184867398Y-107704254D01*
X185077330Y-107694254D01*
X185281576Y-107644704D01*
X185378369Y-107600500D01*
X185472752Y-107557397D01*
X185552624Y-107500520D01*
X185643952Y-107435486D01*
X185718447Y-107357357D01*
X186656195Y-107357357D01*
X186660269Y-107362537D01*
X186819036Y-107500111D01*
X187000963Y-107605146D01*
X187199484Y-107673856D01*
X187407420Y-107703751D01*
X187617258Y-107693756D01*
X187821410Y-107644229D01*
X188012505Y-107556960D01*
X188183622Y-107435108D01*
X188260707Y-107354260D01*
X187460000Y-106553553D01*
X186656195Y-107357356D01*
X186656195Y-107357357D01*
X185718447Y-107357357D01*
X185788986Y-107283378D01*
X185902613Y-107106572D01*
X185980725Y-106911457D01*
X186018529Y-106715311D01*
X186020500Y-106705086D01*
X186020500Y-106652399D01*
X186360000Y-106652399D01*
X186374965Y-106809123D01*
X186402737Y-106903708D01*
X187106447Y-106200001D01*
X187106447Y-106200000D01*
X187813553Y-106200000D01*
X188520990Y-106907438D01*
X188560000Y-106705038D01*
X188560000Y-106652425D01*
X188899500Y-106652425D01*
X188904529Y-106705086D01*
X188914472Y-106809220D01*
X188973683Y-107010873D01*
X189069990Y-107197684D01*
X189199906Y-107362884D01*
X189358745Y-107500520D01*
X189540754Y-107605603D01*
X189540756Y-107605604D01*
X189634241Y-107637959D01*
X189739366Y-107674344D01*
X189774298Y-107679366D01*
X189947398Y-107704254D01*
X190157330Y-107694254D01*
X190361576Y-107644704D01*
X190458369Y-107600500D01*
X190552752Y-107557397D01*
X190632624Y-107500520D01*
X190723952Y-107435486D01*
X190868986Y-107283378D01*
X190982613Y-107106572D01*
X191060725Y-106911457D01*
X191098529Y-106715311D01*
X191100500Y-106705086D01*
X191100500Y-106652425D01*
X191439500Y-106652425D01*
X191444529Y-106705086D01*
X191454472Y-106809220D01*
X191513683Y-107010873D01*
X191609990Y-107197684D01*
X191739906Y-107362884D01*
X191898745Y-107500520D01*
X192080754Y-107605603D01*
X192080756Y-107605604D01*
X192174241Y-107637959D01*
X192279366Y-107674344D01*
X192314298Y-107679366D01*
X192487398Y-107704254D01*
X192697330Y-107694254D01*
X192901576Y-107644704D01*
X192998369Y-107600500D01*
X193092752Y-107557397D01*
X193172624Y-107500520D01*
X193263952Y-107435486D01*
X193408986Y-107283378D01*
X193522613Y-107106572D01*
X193600725Y-106911457D01*
X193638529Y-106715311D01*
X193640500Y-106705086D01*
X193640500Y-106652425D01*
X193979500Y-106652425D01*
X193984529Y-106705086D01*
X193994472Y-106809220D01*
X194053683Y-107010873D01*
X194149990Y-107197684D01*
X194279906Y-107362884D01*
X194438745Y-107500520D01*
X194620754Y-107605603D01*
X194620756Y-107605604D01*
X194714241Y-107637959D01*
X194819366Y-107674344D01*
X194854298Y-107679366D01*
X195027398Y-107704254D01*
X195237330Y-107694254D01*
X195441576Y-107644704D01*
X195538369Y-107600500D01*
X195632752Y-107557397D01*
X195712624Y-107500520D01*
X195803952Y-107435486D01*
X195948986Y-107283378D01*
X196062613Y-107106572D01*
X196140725Y-106911457D01*
X196178529Y-106715311D01*
X196180500Y-106705086D01*
X196180500Y-106652425D01*
X196519500Y-106652425D01*
X196524529Y-106705086D01*
X196534472Y-106809220D01*
X196593683Y-107010873D01*
X196689990Y-107197684D01*
X196819906Y-107362884D01*
X196978745Y-107500520D01*
X197160754Y-107605603D01*
X197160756Y-107605604D01*
X197254241Y-107637959D01*
X197359366Y-107674344D01*
X197394298Y-107679366D01*
X197567398Y-107704254D01*
X197777330Y-107694254D01*
X197981576Y-107644704D01*
X198078369Y-107600500D01*
X198172752Y-107557397D01*
X198252624Y-107500520D01*
X198343952Y-107435486D01*
X198488986Y-107283378D01*
X198602613Y-107106572D01*
X198680725Y-106911457D01*
X198718529Y-106715311D01*
X198720500Y-106705086D01*
X198720500Y-106652425D01*
X199059500Y-106652425D01*
X199064529Y-106705086D01*
X199074472Y-106809220D01*
X199133683Y-107010873D01*
X199229990Y-107197684D01*
X199359906Y-107362884D01*
X199518745Y-107500520D01*
X199700754Y-107605603D01*
X199700756Y-107605604D01*
X199794241Y-107637959D01*
X199899366Y-107674344D01*
X199934298Y-107679366D01*
X200107398Y-107704254D01*
X200317330Y-107694254D01*
X200521576Y-107644704D01*
X200618369Y-107600500D01*
X200712752Y-107557397D01*
X200792624Y-107500520D01*
X200883952Y-107435486D01*
X201028986Y-107283378D01*
X201142613Y-107106572D01*
X201220725Y-106911457D01*
X201258529Y-106715311D01*
X201260500Y-106705086D01*
X201260500Y-106652425D01*
X201599500Y-106652425D01*
X201604529Y-106705086D01*
X201614472Y-106809220D01*
X201673683Y-107010873D01*
X201769990Y-107197684D01*
X201899906Y-107362884D01*
X202058745Y-107500520D01*
X202240754Y-107605603D01*
X202240756Y-107605604D01*
X202334241Y-107637959D01*
X202439366Y-107674344D01*
X202474298Y-107679366D01*
X202647398Y-107704254D01*
X202857330Y-107694254D01*
X203061576Y-107644704D01*
X203158369Y-107600500D01*
X203252752Y-107557397D01*
X203332624Y-107500520D01*
X203423952Y-107435486D01*
X203568986Y-107283378D01*
X203682613Y-107106572D01*
X203760725Y-106911457D01*
X203798529Y-106715311D01*
X203800500Y-106705086D01*
X203800500Y-106700000D01*
X216894540Y-106700000D01*
X216914326Y-106888257D01*
X216972820Y-107068284D01*
X217067466Y-107232216D01*
X217194129Y-107372889D01*
X217347269Y-107484151D01*
X217520197Y-107561144D01*
X217705352Y-107600500D01*
X217705354Y-107600500D01*
X217894646Y-107600500D01*
X217894648Y-107600500D01*
X218018084Y-107574262D01*
X218079803Y-107561144D01*
X218252730Y-107484151D01*
X218405871Y-107372888D01*
X218414879Y-107362884D01*
X218434110Y-107341527D01*
X218475824Y-107311220D01*
X218526259Y-107300500D01*
X224754069Y-107300500D01*
X224814543Y-107316246D01*
X224859658Y-107359485D01*
X224937430Y-107485794D01*
X225094937Y-107664756D01*
X225280414Y-107814519D01*
X225280417Y-107814520D01*
X225280420Y-107814523D01*
X225488546Y-107930790D01*
X225488548Y-107930791D01*
X225713331Y-108010212D01*
X225948297Y-108050500D01*
X225948300Y-108050500D01*
X227926997Y-108050500D01*
X227927001Y-108050500D01*
X228045692Y-108040397D01*
X228105041Y-108035346D01*
X228258846Y-107995298D01*
X228335750Y-107975275D01*
X228444367Y-107926175D01*
X228552986Y-107877077D01*
X228750503Y-107743579D01*
X228922618Y-107578621D01*
X229064379Y-107386947D01*
X229171707Y-107174074D01*
X229241516Y-106946123D01*
X229271798Y-106709654D01*
X229261680Y-106471468D01*
X229211454Y-106238419D01*
X229122564Y-106017210D01*
X228997569Y-105814205D01*
X228840064Y-105635245D01*
X228840062Y-105635243D01*
X228654585Y-105485480D01*
X228446451Y-105369208D01*
X228221668Y-105289787D01*
X227986703Y-105249500D01*
X227986700Y-105249500D01*
X226008003Y-105249500D01*
X226007999Y-105249500D01*
X225829960Y-105264653D01*
X225599249Y-105324724D01*
X225382014Y-105422922D01*
X225184497Y-105556420D01*
X225012381Y-105721379D01*
X224870621Y-105913052D01*
X224869211Y-105915849D01*
X224861407Y-105931326D01*
X224815700Y-105981090D01*
X224750686Y-105999500D01*
X218408156Y-105999500D01*
X218369838Y-105993431D01*
X218335270Y-105975818D01*
X218252727Y-105915847D01*
X218079802Y-105838855D01*
X217894648Y-105799500D01*
X217894646Y-105799500D01*
X217705354Y-105799500D01*
X217705352Y-105799500D01*
X217520197Y-105838855D01*
X217347269Y-105915848D01*
X217194129Y-106027110D01*
X217067466Y-106167783D01*
X216972820Y-106331715D01*
X216914326Y-106511742D01*
X216894540Y-106700000D01*
X203800500Y-106700000D01*
X203800500Y-105747580D01*
X203800500Y-105747575D01*
X203785528Y-105590782D01*
X203726316Y-105389125D01*
X203630011Y-105202318D01*
X203562618Y-105116622D01*
X203500093Y-105037115D01*
X203341254Y-104899479D01*
X203159245Y-104794396D01*
X202960633Y-104725655D01*
X202752603Y-104695746D01*
X202752602Y-104695746D01*
X202647635Y-104700746D01*
X202542669Y-104705746D01*
X202338419Y-104755297D01*
X202147247Y-104842602D01*
X201976050Y-104964512D01*
X201831013Y-105116623D01*
X201717387Y-105293425D01*
X201639274Y-105488545D01*
X201604566Y-105668630D01*
X201599500Y-105694915D01*
X201599500Y-106652425D01*
X201260500Y-106652425D01*
X201260500Y-105747580D01*
X201260500Y-105747575D01*
X201245528Y-105590782D01*
X201186316Y-105389125D01*
X201090011Y-105202318D01*
X201022618Y-105116622D01*
X200960093Y-105037115D01*
X200801254Y-104899479D01*
X200619245Y-104794396D01*
X200420633Y-104725655D01*
X200212603Y-104695746D01*
X200212602Y-104695746D01*
X200107635Y-104700746D01*
X200002669Y-104705746D01*
X199798419Y-104755297D01*
X199607247Y-104842602D01*
X199436050Y-104964512D01*
X199291013Y-105116623D01*
X199177387Y-105293425D01*
X199099274Y-105488545D01*
X199064566Y-105668630D01*
X199059500Y-105694915D01*
X199059500Y-106652425D01*
X198720500Y-106652425D01*
X198720500Y-105747580D01*
X198720500Y-105747575D01*
X198705528Y-105590782D01*
X198646316Y-105389125D01*
X198550011Y-105202318D01*
X198482618Y-105116622D01*
X198420093Y-105037115D01*
X198261254Y-104899479D01*
X198079245Y-104794396D01*
X197880633Y-104725655D01*
X197672603Y-104695746D01*
X197672602Y-104695746D01*
X197567635Y-104700746D01*
X197462669Y-104705746D01*
X197258419Y-104755297D01*
X197067247Y-104842602D01*
X196896050Y-104964512D01*
X196751013Y-105116623D01*
X196637387Y-105293425D01*
X196559274Y-105488545D01*
X196524566Y-105668630D01*
X196519500Y-105694915D01*
X196519500Y-106652425D01*
X196180500Y-106652425D01*
X196180500Y-105747580D01*
X196180500Y-105747575D01*
X196165528Y-105590782D01*
X196106316Y-105389125D01*
X196010011Y-105202318D01*
X195942618Y-105116622D01*
X195880093Y-105037115D01*
X195721254Y-104899479D01*
X195539245Y-104794396D01*
X195340633Y-104725655D01*
X195132603Y-104695746D01*
X195132602Y-104695746D01*
X195027635Y-104700746D01*
X194922669Y-104705746D01*
X194718419Y-104755297D01*
X194527247Y-104842602D01*
X194356050Y-104964512D01*
X194211013Y-105116623D01*
X194097387Y-105293425D01*
X194019274Y-105488545D01*
X193984566Y-105668630D01*
X193979500Y-105694915D01*
X193979500Y-106652425D01*
X193640500Y-106652425D01*
X193640500Y-105747580D01*
X193640500Y-105747575D01*
X193625528Y-105590782D01*
X193566316Y-105389125D01*
X193470011Y-105202318D01*
X193402618Y-105116622D01*
X193340093Y-105037115D01*
X193181254Y-104899479D01*
X192999245Y-104794396D01*
X192800633Y-104725655D01*
X192592603Y-104695746D01*
X192592602Y-104695746D01*
X192487635Y-104700746D01*
X192382669Y-104705746D01*
X192178419Y-104755297D01*
X191987247Y-104842602D01*
X191816050Y-104964512D01*
X191671013Y-105116623D01*
X191557387Y-105293425D01*
X191479274Y-105488545D01*
X191444566Y-105668630D01*
X191439500Y-105694915D01*
X191439500Y-106652425D01*
X191100500Y-106652425D01*
X191100500Y-105747580D01*
X191100500Y-105747575D01*
X191085528Y-105590782D01*
X191026316Y-105389125D01*
X190930011Y-105202318D01*
X190862618Y-105116622D01*
X190800093Y-105037115D01*
X190641254Y-104899479D01*
X190459245Y-104794396D01*
X190260633Y-104725655D01*
X190052603Y-104695746D01*
X190052602Y-104695746D01*
X189947635Y-104700746D01*
X189842669Y-104705746D01*
X189638419Y-104755297D01*
X189447247Y-104842602D01*
X189276050Y-104964512D01*
X189131013Y-105116623D01*
X189017387Y-105293425D01*
X188939274Y-105488545D01*
X188904566Y-105668630D01*
X188899500Y-105694915D01*
X188899500Y-106652425D01*
X188560000Y-106652425D01*
X188560000Y-105747601D01*
X188545034Y-105590872D01*
X188517262Y-105496289D01*
X188517261Y-105496289D01*
X187813553Y-106200000D01*
X187106447Y-106200000D01*
X187106447Y-106199999D01*
X186399007Y-105492560D01*
X186360000Y-105694961D01*
X186360000Y-106652399D01*
X186020500Y-106652399D01*
X186020500Y-105747580D01*
X186020500Y-105747575D01*
X186005528Y-105590782D01*
X185946316Y-105389125D01*
X185850011Y-105202318D01*
X185782618Y-105116622D01*
X185726874Y-105045738D01*
X186659291Y-105045738D01*
X187460000Y-105846447D01*
X187460001Y-105846447D01*
X188263803Y-105042643D01*
X188263803Y-105042641D01*
X188259729Y-105037460D01*
X188100963Y-104899888D01*
X187919036Y-104794853D01*
X187720515Y-104726143D01*
X187512579Y-104696248D01*
X187302741Y-104706243D01*
X187098589Y-104755770D01*
X186907494Y-104843039D01*
X186736378Y-104964892D01*
X186659291Y-105045738D01*
X185726874Y-105045738D01*
X185720093Y-105037115D01*
X185561254Y-104899479D01*
X185379245Y-104794396D01*
X185180633Y-104725655D01*
X184972603Y-104695746D01*
X184972602Y-104695746D01*
X184867635Y-104700746D01*
X184762669Y-104705746D01*
X184558419Y-104755297D01*
X184367247Y-104842602D01*
X184196050Y-104964512D01*
X184051013Y-105116623D01*
X183937387Y-105293425D01*
X183859274Y-105488545D01*
X183824566Y-105668630D01*
X183819500Y-105694915D01*
X183819500Y-106652425D01*
X183480500Y-106652425D01*
X183480500Y-105747580D01*
X183480500Y-105747575D01*
X183465528Y-105590782D01*
X183406316Y-105389125D01*
X183310011Y-105202318D01*
X183242618Y-105116622D01*
X183180093Y-105037115D01*
X183021254Y-104899479D01*
X182839245Y-104794396D01*
X182640633Y-104725655D01*
X182432603Y-104695746D01*
X182432602Y-104695746D01*
X182327635Y-104700746D01*
X182222669Y-104705746D01*
X182018419Y-104755297D01*
X181827247Y-104842602D01*
X181656050Y-104964512D01*
X181511013Y-105116623D01*
X181397387Y-105293425D01*
X181319274Y-105488545D01*
X181284566Y-105668630D01*
X181279500Y-105694915D01*
X181279500Y-106652425D01*
X168637569Y-106652425D01*
X168550980Y-106537762D01*
X168386562Y-106387875D01*
X168197404Y-106270754D01*
X168136174Y-106247033D01*
X167989940Y-106190382D01*
X167771243Y-106149500D01*
X167548757Y-106149500D01*
X167330059Y-106190382D01*
X167330060Y-106190382D01*
X167122595Y-106270754D01*
X166933437Y-106387875D01*
X166769019Y-106537762D01*
X166634941Y-106715311D01*
X166535769Y-106914473D01*
X166509266Y-107007625D01*
X166476867Y-107062179D01*
X166421724Y-107093564D01*
X166358276Y-107093564D01*
X166303133Y-107062179D01*
X166270734Y-107007625D01*
X166244230Y-106914473D01*
X166145058Y-106715311D01*
X166010980Y-106537762D01*
X165846562Y-106387875D01*
X165657404Y-106270754D01*
X165596174Y-106247033D01*
X165449940Y-106190382D01*
X165231243Y-106149500D01*
X165008757Y-106149500D01*
X164790059Y-106190382D01*
X164790060Y-106190382D01*
X164582595Y-106270754D01*
X164393437Y-106387875D01*
X164229019Y-106537762D01*
X164094941Y-106715311D01*
X163995769Y-106914473D01*
X163969266Y-107007625D01*
X163936867Y-107062179D01*
X163881724Y-107093564D01*
X163818276Y-107093564D01*
X163763133Y-107062179D01*
X163730734Y-107007625D01*
X163704230Y-106914473D01*
X163605058Y-106715311D01*
X163470980Y-106537762D01*
X163306562Y-106387875D01*
X163117404Y-106270754D01*
X163056174Y-106247033D01*
X162909940Y-106190382D01*
X162691243Y-106149500D01*
X162468757Y-106149500D01*
X162250059Y-106190382D01*
X162250060Y-106190382D01*
X162042595Y-106270754D01*
X161853437Y-106387875D01*
X161689019Y-106537762D01*
X161554941Y-106715311D01*
X161455769Y-106914473D01*
X161429266Y-107007625D01*
X161396867Y-107062179D01*
X161341724Y-107093564D01*
X161278276Y-107093564D01*
X161223133Y-107062179D01*
X161190734Y-107007625D01*
X161164230Y-106914473D01*
X161065058Y-106715311D01*
X160930980Y-106537762D01*
X160766562Y-106387875D01*
X160577404Y-106270754D01*
X160516174Y-106247033D01*
X160369940Y-106190382D01*
X160151243Y-106149500D01*
X159928757Y-106149500D01*
X159710059Y-106190382D01*
X159710060Y-106190382D01*
X159502595Y-106270754D01*
X159313437Y-106387875D01*
X159149019Y-106537762D01*
X159014941Y-106715311D01*
X158915769Y-106914473D01*
X158889266Y-107007625D01*
X158856867Y-107062179D01*
X158801724Y-107093564D01*
X158738276Y-107093564D01*
X158683133Y-107062179D01*
X158650734Y-107007625D01*
X158624230Y-106914473D01*
X158525058Y-106715311D01*
X158390980Y-106537762D01*
X158226562Y-106387875D01*
X158037404Y-106270754D01*
X157976174Y-106247033D01*
X157829940Y-106190382D01*
X157611243Y-106149500D01*
X157388757Y-106149500D01*
X157170059Y-106190382D01*
X157170060Y-106190382D01*
X156962595Y-106270754D01*
X156773437Y-106387875D01*
X156609019Y-106537762D01*
X156474941Y-106715311D01*
X156375769Y-106914473D01*
X156349266Y-107007625D01*
X156316867Y-107062179D01*
X156261724Y-107093564D01*
X156198276Y-107093564D01*
X156143133Y-107062179D01*
X156110734Y-107007625D01*
X156084230Y-106914473D01*
X155985058Y-106715311D01*
X155850980Y-106537762D01*
X155686562Y-106387875D01*
X155497404Y-106270754D01*
X155436174Y-106247033D01*
X155289940Y-106190382D01*
X155071243Y-106149500D01*
X154848757Y-106149500D01*
X154630059Y-106190382D01*
X154630060Y-106190382D01*
X154422595Y-106270754D01*
X154233437Y-106387875D01*
X154069019Y-106537762D01*
X153934941Y-106715311D01*
X153835769Y-106914473D01*
X153809266Y-107007625D01*
X153776867Y-107062179D01*
X153721724Y-107093564D01*
X153658276Y-107093564D01*
X153603133Y-107062179D01*
X153570734Y-107007625D01*
X153544230Y-106914473D01*
X153445058Y-106715311D01*
X153310980Y-106537762D01*
X153146562Y-106387875D01*
X152957404Y-106270754D01*
X152896174Y-106247033D01*
X152749940Y-106190382D01*
X152531243Y-106149500D01*
X152308757Y-106149500D01*
X152090059Y-106190382D01*
X152090060Y-106190382D01*
X151882595Y-106270754D01*
X151693437Y-106387875D01*
X151529019Y-106537762D01*
X151394941Y-106715311D01*
X151295769Y-106914473D01*
X151234884Y-107128462D01*
X151219500Y-107294496D01*
X151219500Y-108205504D01*
X149000500Y-108205504D01*
X149000500Y-106005413D01*
X149000972Y-105994606D01*
X149007862Y-105915849D01*
X149014739Y-105837242D01*
X149018490Y-105815966D01*
X149057969Y-105668627D01*
X149065362Y-105648318D01*
X149129822Y-105510084D01*
X149140629Y-105491366D01*
X149228119Y-105366417D01*
X149242007Y-105349865D01*
X149349865Y-105242007D01*
X149366417Y-105228119D01*
X149491366Y-105140629D01*
X149510081Y-105129823D01*
X149648320Y-105065361D01*
X149668627Y-105057969D01*
X149815966Y-105018490D01*
X149837242Y-105014739D01*
X149969885Y-105003134D01*
X149994606Y-105000972D01*
X150005413Y-105000500D01*
X150131121Y-105000500D01*
X150155658Y-104997269D01*
X150391116Y-104966270D01*
X150644419Y-104898398D01*
X150886697Y-104798043D01*
X151113803Y-104666924D01*
X151321851Y-104507282D01*
X151507282Y-104321851D01*
X151666924Y-104113803D01*
X151798043Y-103886697D01*
X151898398Y-103644419D01*
X151966270Y-103391116D01*
X152000500Y-103131120D01*
X152000500Y-103000000D01*
X152000500Y-102907290D01*
X152000500Y-102899999D01*
X216194540Y-102899999D01*
X216214326Y-103088257D01*
X216272820Y-103268284D01*
X216367466Y-103432216D01*
X216494129Y-103572889D01*
X216647269Y-103684151D01*
X216820197Y-103761144D01*
X217005352Y-103800500D01*
X217005354Y-103800500D01*
X217194646Y-103800500D01*
X217194648Y-103800500D01*
X217344626Y-103768621D01*
X217379803Y-103761144D01*
X217552730Y-103684151D01*
X217705871Y-103572888D01*
X217705870Y-103572888D01*
X217743114Y-103531527D01*
X217784828Y-103501220D01*
X217835263Y-103490500D01*
X224754069Y-103490500D01*
X224814543Y-103506246D01*
X224859658Y-103549485D01*
X224937430Y-103675794D01*
X224937431Y-103675795D01*
X225047185Y-103800500D01*
X225094937Y-103854756D01*
X225280414Y-104004519D01*
X225280417Y-104004520D01*
X225280420Y-104004523D01*
X225467679Y-104109133D01*
X225488548Y-104120791D01*
X225713331Y-104200212D01*
X225948297Y-104240500D01*
X225948300Y-104240500D01*
X227926997Y-104240500D01*
X227927001Y-104240500D01*
X228045692Y-104230397D01*
X228105041Y-104225346D01*
X228258846Y-104185298D01*
X228335750Y-104165275D01*
X228459948Y-104109133D01*
X228552986Y-104067077D01*
X228750503Y-103933579D01*
X228922618Y-103768621D01*
X229064379Y-103576947D01*
X229171707Y-103364074D01*
X229241516Y-103136123D01*
X229271798Y-102899654D01*
X229261680Y-102661468D01*
X229211454Y-102428419D01*
X229122564Y-102207210D01*
X228997569Y-102004205D01*
X228840064Y-101825245D01*
X228840062Y-101825243D01*
X228654585Y-101675480D01*
X228446451Y-101559208D01*
X228221668Y-101479787D01*
X227986703Y-101439500D01*
X227986700Y-101439500D01*
X226008003Y-101439500D01*
X226007999Y-101439500D01*
X225829960Y-101454653D01*
X225599249Y-101514724D01*
X225382014Y-101612922D01*
X225184497Y-101746420D01*
X225012381Y-101911379D01*
X224870621Y-102103052D01*
X224866490Y-102111244D01*
X224861407Y-102121326D01*
X224815700Y-102171090D01*
X224750686Y-102189500D01*
X217694392Y-102189500D01*
X217656074Y-102183431D01*
X217621506Y-102165818D01*
X217552727Y-102115846D01*
X217379802Y-102038855D01*
X217194648Y-101999500D01*
X217194646Y-101999500D01*
X217005354Y-101999500D01*
X217005352Y-101999500D01*
X216820197Y-102038855D01*
X216647269Y-102115848D01*
X216494129Y-102227110D01*
X216367466Y-102367783D01*
X216272820Y-102531715D01*
X216214326Y-102711742D01*
X216194540Y-102899999D01*
X152000500Y-102899999D01*
X152000500Y-99280000D01*
X224689234Y-99280000D01*
X224724026Y-99441434D01*
X224812883Y-99662562D01*
X224937835Y-99865497D01*
X225095284Y-100044394D01*
X225280699Y-100194106D01*
X225488750Y-100310332D01*
X225713457Y-100389726D01*
X225948340Y-100430000D01*
X226717500Y-100430000D01*
X226717500Y-99280000D01*
X227217500Y-99280000D01*
X227217500Y-100430000D01*
X227926977Y-100430000D01*
X228104955Y-100414851D01*
X228335583Y-100354801D01*
X228552741Y-100256639D01*
X228750187Y-100123188D01*
X228922241Y-99958288D01*
X229063950Y-99766684D01*
X229171241Y-99553886D01*
X229241025Y-99326017D01*
X229246918Y-99280000D01*
X227217500Y-99280000D01*
X226717500Y-99280000D01*
X224689234Y-99280000D01*
X152000500Y-99280000D01*
X152000500Y-98780000D01*
X224688082Y-98780000D01*
X226717500Y-98780000D01*
X226717500Y-97630000D01*
X227217500Y-97630000D01*
X227217500Y-98780000D01*
X229245766Y-98780000D01*
X229245765Y-98779999D01*
X229210973Y-98618565D01*
X229122116Y-98397437D01*
X228997164Y-98194502D01*
X228839715Y-98015605D01*
X228654300Y-97865893D01*
X228446249Y-97749667D01*
X228221542Y-97670273D01*
X227986660Y-97630000D01*
X227217500Y-97630000D01*
X226717500Y-97630000D01*
X226008023Y-97630000D01*
X225830044Y-97645148D01*
X225599416Y-97705198D01*
X225382258Y-97803360D01*
X225184812Y-97936811D01*
X225012758Y-98101711D01*
X224871049Y-98293315D01*
X224763758Y-98506113D01*
X224693974Y-98733982D01*
X224688082Y-98780000D01*
X152000500Y-98780000D01*
X152000500Y-96949258D01*
X152000500Y-96868880D01*
X151966270Y-96608884D01*
X151898398Y-96355581D01*
X151798043Y-96113303D01*
X151666924Y-95886197D01*
X151666923Y-95886195D01*
X151507282Y-95678149D01*
X151321850Y-95492717D01*
X151113804Y-95333076D01*
X150886697Y-95201957D01*
X150644419Y-95101602D01*
X150644418Y-95101601D01*
X150560166Y-95079026D01*
X209274526Y-95079026D01*
X209347515Y-95130133D01*
X209553673Y-95226266D01*
X209773397Y-95285141D01*
X210000000Y-95304966D01*
X210226602Y-95285141D01*
X210446326Y-95226266D01*
X210652480Y-95130134D01*
X210725472Y-95079025D01*
X210000001Y-94353553D01*
X210000000Y-94353553D01*
X209274526Y-95079025D01*
X209274526Y-95079026D01*
X150560166Y-95079026D01*
X150391116Y-95033730D01*
X150217785Y-95010909D01*
X150131121Y-94999500D01*
X150131120Y-94999500D01*
X150005413Y-94999500D01*
X149994605Y-94999028D01*
X149837246Y-94985260D01*
X149815961Y-94981507D01*
X149668630Y-94942030D01*
X149648318Y-94934637D01*
X149510084Y-94870177D01*
X149491366Y-94859370D01*
X149366417Y-94771880D01*
X149349859Y-94757986D01*
X149242013Y-94650140D01*
X149228119Y-94633582D01*
X149140629Y-94508633D01*
X149129822Y-94489915D01*
X149065362Y-94351681D01*
X149057969Y-94331369D01*
X149018492Y-94184038D01*
X149014739Y-94162752D01*
X149010055Y-94109218D01*
X149000972Y-94005394D01*
X149000500Y-93994587D01*
X149000500Y-92955504D01*
X151219500Y-92955504D01*
X151234884Y-93121537D01*
X151295769Y-93335526D01*
X151394941Y-93534688D01*
X151529019Y-93712237D01*
X151693437Y-93862124D01*
X151882595Y-93979245D01*
X151882597Y-93979245D01*
X151882599Y-93979247D01*
X152090060Y-94059618D01*
X152308757Y-94100500D01*
X152531241Y-94100500D01*
X152531243Y-94100500D01*
X152749940Y-94059618D01*
X152957401Y-93979247D01*
X153146562Y-93862124D01*
X153294474Y-93727284D01*
X154086267Y-93727284D01*
X154233737Y-93861721D01*
X154422821Y-93978797D01*
X154630198Y-94059135D01*
X154848806Y-94100000D01*
X155071194Y-94100000D01*
X155289801Y-94059135D01*
X155497178Y-93978797D01*
X155686259Y-93861723D01*
X155833730Y-93727283D01*
X154960000Y-92853553D01*
X154086267Y-93727284D01*
X153294474Y-93727284D01*
X153310981Y-93712236D01*
X153445058Y-93534689D01*
X153544229Y-93335528D01*
X153570994Y-93241458D01*
X153603391Y-93186908D01*
X153658534Y-93155522D01*
X153721983Y-93155522D01*
X153777126Y-93186907D01*
X153809525Y-93241461D01*
X153821809Y-93284635D01*
X153821810Y-93284636D01*
X154606447Y-92500001D01*
X154606447Y-92500000D01*
X153821810Y-91715363D01*
X153821808Y-91715363D01*
X153809525Y-91758537D01*
X153777126Y-91813091D01*
X153721983Y-91844476D01*
X153658534Y-91844476D01*
X153603391Y-91813090D01*
X153570993Y-91758537D01*
X153544230Y-91664473D01*
X153445058Y-91465311D01*
X153310980Y-91287762D01*
X153294473Y-91272714D01*
X154086267Y-91272714D01*
X154960000Y-92146447D01*
X154960001Y-92146447D01*
X155833731Y-91272715D01*
X155833731Y-91272714D01*
X155686262Y-91138278D01*
X155497178Y-91021202D01*
X155289801Y-90940864D01*
X155071194Y-90900000D01*
X154848806Y-90900000D01*
X154630198Y-90940864D01*
X154422821Y-91021202D01*
X154233737Y-91138278D01*
X154086267Y-91272714D01*
X153294473Y-91272714D01*
X153146562Y-91137875D01*
X152957404Y-91020754D01*
X152896174Y-90997033D01*
X152749940Y-90940382D01*
X152531243Y-90899500D01*
X152308757Y-90899500D01*
X152090059Y-90940382D01*
X152090060Y-90940382D01*
X151882595Y-91020754D01*
X151693437Y-91137875D01*
X151529019Y-91287762D01*
X151394941Y-91465311D01*
X151295769Y-91664473D01*
X151234884Y-91878462D01*
X151219500Y-92044496D01*
X151219500Y-92955504D01*
X149000500Y-92955504D01*
X149000500Y-81499999D01*
X155294357Y-81499999D01*
X155314885Y-81721537D01*
X155375769Y-81935526D01*
X155474941Y-82134688D01*
X155609019Y-82312237D01*
X155773437Y-82462124D01*
X155962595Y-82579245D01*
X155962597Y-82579245D01*
X155962599Y-82579247D01*
X156170060Y-82659618D01*
X156388757Y-82700500D01*
X156611243Y-82700500D01*
X156611246Y-82700500D01*
X156689639Y-82685845D01*
X156749104Y-82689282D01*
X156800106Y-82720052D01*
X159353181Y-85273127D01*
X159380061Y-85313355D01*
X159389500Y-85360808D01*
X159389500Y-91021713D01*
X159373829Y-91082052D01*
X159330777Y-91127140D01*
X159313437Y-91137876D01*
X159149019Y-91287762D01*
X159014941Y-91465311D01*
X158915769Y-91664473D01*
X158889266Y-91757625D01*
X158856867Y-91812179D01*
X158801724Y-91843564D01*
X158738276Y-91843564D01*
X158683133Y-91812179D01*
X158650734Y-91757625D01*
X158624230Y-91664473D01*
X158525058Y-91465311D01*
X158390980Y-91287762D01*
X158226562Y-91137875D01*
X158037404Y-91020754D01*
X157976174Y-90997033D01*
X157829940Y-90940382D01*
X157611243Y-90899500D01*
X157388757Y-90899500D01*
X157170059Y-90940382D01*
X157170060Y-90940382D01*
X156962595Y-91020754D01*
X156773437Y-91137875D01*
X156609019Y-91287762D01*
X156474941Y-91465311D01*
X156375770Y-91664473D01*
X156349005Y-91758540D01*
X156316606Y-91813093D01*
X156261462Y-91844478D01*
X156198014Y-91844478D01*
X156142871Y-91813092D01*
X156110472Y-91758538D01*
X156098188Y-91715363D01*
X155313553Y-92500000D01*
X155313553Y-92500001D01*
X156098187Y-93284635D01*
X156110472Y-93241461D01*
X156142871Y-93186907D01*
X156198014Y-93155521D01*
X156261463Y-93155521D01*
X156316606Y-93186906D01*
X156349005Y-93241459D01*
X156375770Y-93335527D01*
X156474941Y-93534688D01*
X156609019Y-93712237D01*
X156773437Y-93862124D01*
X156962595Y-93979245D01*
X156962597Y-93979245D01*
X156962599Y-93979247D01*
X157170060Y-94059618D01*
X157388757Y-94100500D01*
X157611241Y-94100500D01*
X157611243Y-94100500D01*
X157829940Y-94059618D01*
X158037401Y-93979247D01*
X158226562Y-93862124D01*
X158390981Y-93712236D01*
X158525058Y-93534689D01*
X158624229Y-93335528D01*
X158624228Y-93335528D01*
X158624230Y-93335526D01*
X158650734Y-93242374D01*
X158683133Y-93187820D01*
X158738275Y-93156435D01*
X158801725Y-93156435D01*
X158856867Y-93187820D01*
X158889266Y-93242374D01*
X158915769Y-93335526D01*
X159014941Y-93534688D01*
X159149019Y-93712237D01*
X159313437Y-93862124D01*
X159502595Y-93979245D01*
X159502597Y-93979245D01*
X159502599Y-93979247D01*
X159710060Y-94059618D01*
X159928757Y-94100500D01*
X160151241Y-94100500D01*
X160151243Y-94100500D01*
X160369940Y-94059618D01*
X160577401Y-93979247D01*
X160766562Y-93862124D01*
X160930981Y-93712236D01*
X161065058Y-93534689D01*
X161164229Y-93335528D01*
X161164228Y-93335528D01*
X161164230Y-93335526D01*
X161190734Y-93242374D01*
X161223133Y-93187820D01*
X161278275Y-93156435D01*
X161341725Y-93156435D01*
X161396867Y-93187820D01*
X161429266Y-93242374D01*
X161455769Y-93335526D01*
X161554941Y-93534688D01*
X161689019Y-93712237D01*
X161853437Y-93862124D01*
X162042595Y-93979245D01*
X162042597Y-93979245D01*
X162042599Y-93979247D01*
X162250060Y-94059618D01*
X162468757Y-94100500D01*
X162691241Y-94100500D01*
X162691243Y-94100500D01*
X162909940Y-94059618D01*
X163117401Y-93979247D01*
X163306562Y-93862124D01*
X163470981Y-93712236D01*
X163605058Y-93534689D01*
X163704229Y-93335528D01*
X163704228Y-93335528D01*
X163704230Y-93335526D01*
X163730734Y-93242374D01*
X163763133Y-93187820D01*
X163818275Y-93156435D01*
X163881725Y-93156435D01*
X163936867Y-93187820D01*
X163969266Y-93242374D01*
X163995769Y-93335526D01*
X164094941Y-93534688D01*
X164229019Y-93712237D01*
X164393437Y-93862124D01*
X164582595Y-93979245D01*
X164582597Y-93979245D01*
X164582599Y-93979247D01*
X164790060Y-94059618D01*
X165008757Y-94100500D01*
X165231241Y-94100500D01*
X165231243Y-94100500D01*
X165449940Y-94059618D01*
X165657401Y-93979247D01*
X165846562Y-93862124D01*
X166010981Y-93712236D01*
X166145058Y-93534689D01*
X166244229Y-93335528D01*
X166244228Y-93335528D01*
X166244230Y-93335526D01*
X166270734Y-93242374D01*
X166303133Y-93187820D01*
X166358275Y-93156435D01*
X166421725Y-93156435D01*
X166476867Y-93187820D01*
X166509266Y-93242374D01*
X166535769Y-93335526D01*
X166634941Y-93534688D01*
X166769019Y-93712237D01*
X166933437Y-93862124D01*
X167122595Y-93979245D01*
X167122597Y-93979245D01*
X167122599Y-93979247D01*
X167330060Y-94059618D01*
X167548757Y-94100500D01*
X167771241Y-94100500D01*
X167771243Y-94100500D01*
X167989940Y-94059618D01*
X168197401Y-93979247D01*
X168240720Y-93952425D01*
X186359500Y-93952425D01*
X186364529Y-94005086D01*
X186374472Y-94109220D01*
X186433683Y-94310873D01*
X186529990Y-94497684D01*
X186659906Y-94662884D01*
X186818745Y-94800520D01*
X187000754Y-94905603D01*
X187000756Y-94905604D01*
X187084641Y-94934637D01*
X187199366Y-94974344D01*
X187234298Y-94979366D01*
X187407398Y-95004254D01*
X187617330Y-94994254D01*
X187821576Y-94944704D01*
X187908196Y-94905146D01*
X188012752Y-94857397D01*
X188092624Y-94800520D01*
X188183952Y-94735486D01*
X188328986Y-94583378D01*
X188442613Y-94406572D01*
X188520725Y-94211457D01*
X188550556Y-94056677D01*
X188560500Y-94005086D01*
X188560500Y-93952425D01*
X188899500Y-93952425D01*
X188904529Y-94005086D01*
X188914472Y-94109220D01*
X188973683Y-94310873D01*
X189069990Y-94497684D01*
X189199906Y-94662884D01*
X189358745Y-94800520D01*
X189540754Y-94905603D01*
X189540756Y-94905604D01*
X189624641Y-94934637D01*
X189739366Y-94974344D01*
X189774298Y-94979366D01*
X189947398Y-95004254D01*
X190157330Y-94994254D01*
X190361576Y-94944704D01*
X190448196Y-94905146D01*
X190552752Y-94857397D01*
X190632624Y-94800520D01*
X190723952Y-94735486D01*
X190868986Y-94583378D01*
X190982613Y-94406572D01*
X191060725Y-94211457D01*
X191090556Y-94056677D01*
X191100500Y-94005086D01*
X191100500Y-93952425D01*
X191439500Y-93952425D01*
X191444529Y-94005086D01*
X191454472Y-94109220D01*
X191513683Y-94310873D01*
X191609990Y-94497684D01*
X191739906Y-94662884D01*
X191898745Y-94800520D01*
X192080754Y-94905603D01*
X192080756Y-94905604D01*
X192164641Y-94934637D01*
X192279366Y-94974344D01*
X192314298Y-94979366D01*
X192487398Y-95004254D01*
X192697330Y-94994254D01*
X192901576Y-94944704D01*
X192988196Y-94905146D01*
X193092752Y-94857397D01*
X193172624Y-94800520D01*
X193263952Y-94735486D01*
X193408986Y-94583378D01*
X193522613Y-94406572D01*
X193600725Y-94211457D01*
X193630556Y-94056677D01*
X193640500Y-94005086D01*
X193640500Y-93952425D01*
X193979500Y-93952425D01*
X193984529Y-94005086D01*
X193994472Y-94109220D01*
X194053683Y-94310873D01*
X194149990Y-94497684D01*
X194279906Y-94662884D01*
X194438745Y-94800520D01*
X194620754Y-94905603D01*
X194620756Y-94905604D01*
X194704641Y-94934637D01*
X194819366Y-94974344D01*
X194854298Y-94979366D01*
X195027398Y-95004254D01*
X195237330Y-94994254D01*
X195441576Y-94944704D01*
X195528196Y-94905146D01*
X195632752Y-94857397D01*
X195712624Y-94800520D01*
X195803952Y-94735486D01*
X195878447Y-94657357D01*
X196816195Y-94657357D01*
X196820269Y-94662537D01*
X196979036Y-94800111D01*
X197160963Y-94905146D01*
X197359484Y-94973856D01*
X197567420Y-95003751D01*
X197777258Y-94993756D01*
X197981410Y-94944229D01*
X198172505Y-94856960D01*
X198343622Y-94735108D01*
X198420707Y-94654260D01*
X198420708Y-94654260D01*
X197620000Y-93853553D01*
X196816195Y-94657356D01*
X196816195Y-94657357D01*
X195878447Y-94657357D01*
X195948986Y-94583378D01*
X196062613Y-94406572D01*
X196140725Y-94211457D01*
X196170556Y-94056677D01*
X196180500Y-94005086D01*
X196180500Y-93952399D01*
X196520000Y-93952399D01*
X196534965Y-94109123D01*
X196562737Y-94203708D01*
X197266447Y-93500001D01*
X197973553Y-93500001D01*
X198680990Y-94207438D01*
X198720000Y-94005038D01*
X198720000Y-94000000D01*
X208695033Y-94000000D01*
X208714858Y-94226602D01*
X208773733Y-94446326D01*
X208869866Y-94652484D01*
X208920972Y-94725471D01*
X208920974Y-94725472D01*
X209646446Y-94000001D01*
X210353553Y-94000001D01*
X211079025Y-94725472D01*
X211130134Y-94652480D01*
X211226266Y-94446326D01*
X211285141Y-94226602D01*
X211304966Y-94000000D01*
X211285141Y-93773397D01*
X211226266Y-93553673D01*
X211130133Y-93347515D01*
X211079025Y-93274526D01*
X210353553Y-94000000D01*
X210353553Y-94000001D01*
X209646446Y-94000001D01*
X209646446Y-94000000D01*
X208920973Y-93274526D01*
X208920973Y-93274527D01*
X208869865Y-93347516D01*
X208773733Y-93553672D01*
X208714858Y-93773397D01*
X208695033Y-94000000D01*
X198720000Y-94000000D01*
X198720000Y-93047601D01*
X198707908Y-92920973D01*
X209274526Y-92920973D01*
X210000000Y-93646446D01*
X210000001Y-93646446D01*
X210725472Y-92920974D01*
X210725471Y-92920972D01*
X210652484Y-92869866D01*
X210446326Y-92773733D01*
X210226602Y-92714858D01*
X210000000Y-92695033D01*
X209773397Y-92714858D01*
X209553672Y-92773733D01*
X209347516Y-92869865D01*
X209274527Y-92920973D01*
X209274526Y-92920973D01*
X198707908Y-92920973D01*
X198705034Y-92890872D01*
X198677262Y-92796289D01*
X198677261Y-92796289D01*
X197973553Y-93500000D01*
X197973553Y-93500001D01*
X197266447Y-93500001D01*
X197266447Y-93500000D01*
X196559007Y-92792560D01*
X196520000Y-92994961D01*
X196520000Y-93952399D01*
X196180500Y-93952399D01*
X196180500Y-93047580D01*
X196180500Y-93047575D01*
X196165528Y-92890782D01*
X196106316Y-92689125D01*
X196010011Y-92502318D01*
X195942618Y-92416622D01*
X195886874Y-92345738D01*
X196819291Y-92345738D01*
X197620000Y-93146447D01*
X197620001Y-93146447D01*
X198423803Y-92342643D01*
X198423803Y-92342641D01*
X198419729Y-92337460D01*
X198260963Y-92199888D01*
X198079036Y-92094853D01*
X197880515Y-92026143D01*
X197672579Y-91996248D01*
X197462741Y-92006243D01*
X197258589Y-92055770D01*
X197067494Y-92143039D01*
X196896378Y-92264892D01*
X196819291Y-92345738D01*
X195886874Y-92345738D01*
X195880093Y-92337115D01*
X195721254Y-92199479D01*
X195539245Y-92094396D01*
X195340633Y-92025655D01*
X195132603Y-91995746D01*
X195132602Y-91995746D01*
X195027635Y-92000746D01*
X194922669Y-92005746D01*
X194718419Y-92055297D01*
X194527247Y-92142602D01*
X194356050Y-92264512D01*
X194211013Y-92416623D01*
X194097387Y-92593425D01*
X194019274Y-92788545D01*
X193993751Y-92920972D01*
X193979500Y-92994915D01*
X193979500Y-93952425D01*
X193640500Y-93952425D01*
X193640500Y-93047580D01*
X193640500Y-93047575D01*
X193625528Y-92890782D01*
X193566316Y-92689125D01*
X193470011Y-92502318D01*
X193402618Y-92416622D01*
X193340093Y-92337115D01*
X193181254Y-92199479D01*
X192999245Y-92094396D01*
X192800633Y-92025655D01*
X192592603Y-91995746D01*
X192592602Y-91995746D01*
X192487635Y-92000746D01*
X192382669Y-92005746D01*
X192178419Y-92055297D01*
X191987247Y-92142602D01*
X191816050Y-92264512D01*
X191671013Y-92416623D01*
X191557387Y-92593425D01*
X191479274Y-92788545D01*
X191453751Y-92920972D01*
X191439500Y-92994915D01*
X191439500Y-93952425D01*
X191100500Y-93952425D01*
X191100500Y-93047580D01*
X191100500Y-93047575D01*
X191085528Y-92890782D01*
X191026316Y-92689125D01*
X190930011Y-92502318D01*
X190862618Y-92416622D01*
X190800093Y-92337115D01*
X190641254Y-92199479D01*
X190459245Y-92094396D01*
X190260633Y-92025655D01*
X190052603Y-91995746D01*
X190052602Y-91995746D01*
X189947635Y-92000746D01*
X189842669Y-92005746D01*
X189638419Y-92055297D01*
X189447247Y-92142602D01*
X189276050Y-92264512D01*
X189131013Y-92416623D01*
X189017387Y-92593425D01*
X188939274Y-92788545D01*
X188913751Y-92920972D01*
X188899500Y-92994915D01*
X188899500Y-93952425D01*
X188560500Y-93952425D01*
X188560500Y-93047580D01*
X188560500Y-93047575D01*
X188545528Y-92890782D01*
X188486316Y-92689125D01*
X188390011Y-92502318D01*
X188322618Y-92416622D01*
X188260093Y-92337115D01*
X188101254Y-92199479D01*
X187919245Y-92094396D01*
X187720633Y-92025655D01*
X187512603Y-91995746D01*
X187512602Y-91995746D01*
X187407635Y-92000746D01*
X187302669Y-92005746D01*
X187098419Y-92055297D01*
X186907247Y-92142602D01*
X186736050Y-92264512D01*
X186591013Y-92416623D01*
X186477387Y-92593425D01*
X186399274Y-92788545D01*
X186373751Y-92920972D01*
X186359500Y-92994915D01*
X186359500Y-93952425D01*
X168240720Y-93952425D01*
X168386562Y-93862124D01*
X168550981Y-93712236D01*
X168685058Y-93534689D01*
X168784229Y-93335528D01*
X168784228Y-93335528D01*
X168784230Y-93335526D01*
X168845115Y-93121537D01*
X168860500Y-92955504D01*
X168860500Y-92044496D01*
X168845115Y-91878462D01*
X168784230Y-91664473D01*
X168685058Y-91465311D01*
X168550980Y-91287762D01*
X168386562Y-91137875D01*
X168197404Y-91020754D01*
X168136174Y-90997033D01*
X167989940Y-90940382D01*
X167771243Y-90899500D01*
X167548757Y-90899500D01*
X167330059Y-90940382D01*
X167330060Y-90940382D01*
X167122595Y-91020754D01*
X166933437Y-91137875D01*
X166769019Y-91287762D01*
X166634941Y-91465311D01*
X166535769Y-91664473D01*
X166509266Y-91757625D01*
X166476867Y-91812179D01*
X166421724Y-91843564D01*
X166358276Y-91843564D01*
X166303133Y-91812179D01*
X166270734Y-91757625D01*
X166244230Y-91664473D01*
X166145058Y-91465311D01*
X166010980Y-91287762D01*
X165846562Y-91137875D01*
X165657404Y-91020754D01*
X165596174Y-90997033D01*
X165449940Y-90940382D01*
X165231243Y-90899500D01*
X165008757Y-90899500D01*
X164790059Y-90940382D01*
X164790060Y-90940382D01*
X164582595Y-91020754D01*
X164393437Y-91137875D01*
X164229019Y-91287762D01*
X164094941Y-91465311D01*
X163995769Y-91664473D01*
X163969266Y-91757625D01*
X163936867Y-91812179D01*
X163881724Y-91843564D01*
X163818276Y-91843564D01*
X163763133Y-91812179D01*
X163730734Y-91757625D01*
X163704230Y-91664473D01*
X163605058Y-91465311D01*
X163470980Y-91287762D01*
X163306562Y-91137875D01*
X163117404Y-91020754D01*
X163056174Y-90997033D01*
X162909940Y-90940382D01*
X162691243Y-90899500D01*
X162468757Y-90899500D01*
X162250059Y-90940382D01*
X162250060Y-90940382D01*
X162042595Y-91020754D01*
X161853437Y-91137875D01*
X161689019Y-91287762D01*
X161554941Y-91465311D01*
X161455769Y-91664473D01*
X161429266Y-91757625D01*
X161396867Y-91812179D01*
X161341724Y-91843564D01*
X161278276Y-91843564D01*
X161223133Y-91812179D01*
X161190734Y-91757625D01*
X161164230Y-91664473D01*
X161065058Y-91465311D01*
X160930980Y-91287762D01*
X160766562Y-91137876D01*
X160749223Y-91127140D01*
X160706171Y-91082052D01*
X160690500Y-91021713D01*
X160690500Y-88999999D01*
X208694531Y-88999999D01*
X208714364Y-89226689D01*
X208773261Y-89446497D01*
X208869432Y-89652735D01*
X208999953Y-89839140D01*
X209160859Y-90000046D01*
X209347264Y-90130567D01*
X209347265Y-90130567D01*
X209347266Y-90130568D01*
X209553504Y-90226739D01*
X209773308Y-90285635D01*
X210000000Y-90305468D01*
X210226692Y-90285635D01*
X210446496Y-90226739D01*
X210652734Y-90130568D01*
X210839139Y-90000047D01*
X211000047Y-89839139D01*
X211130568Y-89652734D01*
X211226739Y-89446496D01*
X211285635Y-89226692D01*
X211305468Y-89000000D01*
X211285635Y-88773308D01*
X211226739Y-88553504D01*
X211130568Y-88347266D01*
X211000047Y-88160861D01*
X211000046Y-88160859D01*
X210839140Y-87999953D01*
X210652735Y-87869432D01*
X210446497Y-87773261D01*
X210226689Y-87714364D01*
X210000000Y-87694531D01*
X209773310Y-87714364D01*
X209553502Y-87773261D01*
X209347264Y-87869432D01*
X209160859Y-87999953D01*
X208999953Y-88160859D01*
X208869432Y-88347264D01*
X208773261Y-88553502D01*
X208714364Y-88773310D01*
X208694531Y-88999999D01*
X160690500Y-88999999D01*
X160690500Y-86710000D01*
X224667501Y-86710000D01*
X224667501Y-87159979D01*
X224677993Y-87262695D01*
X224733142Y-87429122D01*
X224825183Y-87578345D01*
X224949154Y-87702316D01*
X225098377Y-87794357D01*
X225264803Y-87849506D01*
X225367521Y-87860000D01*
X226717500Y-87860000D01*
X226717500Y-86710000D01*
X227217500Y-86710000D01*
X227217500Y-87859999D01*
X228567479Y-87859999D01*
X228670195Y-87849506D01*
X228836622Y-87794357D01*
X228985845Y-87702316D01*
X229109816Y-87578345D01*
X229201857Y-87429122D01*
X229257006Y-87262696D01*
X229267500Y-87159979D01*
X229267500Y-86710000D01*
X227217500Y-86710000D01*
X226717500Y-86710000D01*
X224667501Y-86710000D01*
X160690500Y-86710000D01*
X160690500Y-86210000D01*
X224667500Y-86210000D01*
X226717500Y-86210000D01*
X226717500Y-85060001D01*
X225367521Y-85060001D01*
X225264804Y-85070493D01*
X225098377Y-85125642D01*
X224949154Y-85217683D01*
X224825183Y-85341654D01*
X224733142Y-85490877D01*
X224677993Y-85657303D01*
X224667500Y-85760021D01*
X224667500Y-86210000D01*
X160690500Y-86210000D01*
X160690500Y-85125505D01*
X160692841Y-85104295D01*
X160690561Y-85031738D01*
X160690500Y-85027843D01*
X160690500Y-84999081D01*
X160690500Y-84999075D01*
X160689946Y-84994695D01*
X160689030Y-84983054D01*
X160687597Y-84937431D01*
X160681675Y-84917048D01*
X160677732Y-84898011D01*
X160675071Y-84876942D01*
X160658263Y-84834491D01*
X160654480Y-84823442D01*
X160641744Y-84779602D01*
X160630937Y-84761329D01*
X160622382Y-84743866D01*
X160614568Y-84724129D01*
X160587733Y-84687193D01*
X160581325Y-84677436D01*
X160558084Y-84638138D01*
X160558081Y-84638135D01*
X160543068Y-84623122D01*
X160540401Y-84619999D01*
X201074531Y-84619999D01*
X201094364Y-84846689D01*
X201153261Y-85066497D01*
X201249432Y-85272735D01*
X201379953Y-85459140D01*
X201540859Y-85620046D01*
X201727264Y-85750567D01*
X201727265Y-85750567D01*
X201727266Y-85750568D01*
X201933504Y-85846739D01*
X202153308Y-85905635D01*
X202380000Y-85925468D01*
X202606692Y-85905635D01*
X202826496Y-85846739D01*
X203032734Y-85750568D01*
X203219139Y-85620047D01*
X203380047Y-85459139D01*
X203510568Y-85272734D01*
X203606739Y-85066496D01*
X203665635Y-84846692D01*
X203685468Y-84620000D01*
X203685468Y-84619999D01*
X208694531Y-84619999D01*
X208714364Y-84846689D01*
X208773261Y-85066497D01*
X208869432Y-85272735D01*
X208999953Y-85459140D01*
X209160859Y-85620046D01*
X209347264Y-85750567D01*
X209347265Y-85750567D01*
X209347266Y-85750568D01*
X209553504Y-85846739D01*
X209773308Y-85905635D01*
X210000000Y-85925468D01*
X210226692Y-85905635D01*
X210446496Y-85846739D01*
X210652734Y-85750568D01*
X210839139Y-85620047D01*
X211000047Y-85459139D01*
X211130568Y-85272734D01*
X211226739Y-85066496D01*
X211228480Y-85060000D01*
X227217500Y-85060000D01*
X227217500Y-86210000D01*
X229267499Y-86210000D01*
X229267499Y-85760021D01*
X229257006Y-85657304D01*
X229201857Y-85490877D01*
X229109816Y-85341654D01*
X228985845Y-85217683D01*
X228836622Y-85125642D01*
X228670196Y-85070493D01*
X228567479Y-85060000D01*
X227217500Y-85060000D01*
X211228480Y-85060000D01*
X211285635Y-84846692D01*
X211305468Y-84620000D01*
X211285635Y-84393308D01*
X211226739Y-84173504D01*
X211130568Y-83967266D01*
X211105028Y-83930791D01*
X211000046Y-83780859D01*
X210839140Y-83619953D01*
X210652733Y-83489431D01*
X210594725Y-83462382D01*
X210542549Y-83416625D01*
X210523129Y-83350000D01*
X210542549Y-83283375D01*
X210594725Y-83237618D01*
X210618055Y-83226739D01*
X210652734Y-83210568D01*
X210839139Y-83080047D01*
X211000047Y-82919139D01*
X211130568Y-82732734D01*
X211196963Y-82590350D01*
X224663202Y-82590350D01*
X224673319Y-82828529D01*
X224723546Y-83061581D01*
X224789912Y-83226739D01*
X224812436Y-83282790D01*
X224937431Y-83485795D01*
X225019127Y-83578620D01*
X225094937Y-83664756D01*
X225280414Y-83814519D01*
X225280417Y-83814520D01*
X225280420Y-83814523D01*
X225488546Y-83930790D01*
X225488548Y-83930791D01*
X225713331Y-84010212D01*
X225948297Y-84050500D01*
X225948300Y-84050500D01*
X227926997Y-84050500D01*
X227927001Y-84050500D01*
X228045693Y-84040397D01*
X228105041Y-84035346D01*
X228258846Y-83995298D01*
X228335750Y-83975275D01*
X228444367Y-83926176D01*
X228552986Y-83877077D01*
X228750503Y-83743579D01*
X228922618Y-83578621D01*
X229064379Y-83386947D01*
X229171707Y-83174074D01*
X229241516Y-82946123D01*
X229271798Y-82709654D01*
X229261680Y-82471468D01*
X229211454Y-82238419D01*
X229122564Y-82017210D01*
X228997569Y-81814205D01*
X228840064Y-81635245D01*
X228837908Y-81633504D01*
X228654585Y-81485480D01*
X228446451Y-81369208D01*
X228221668Y-81289787D01*
X227986703Y-81249500D01*
X227986700Y-81249500D01*
X226008003Y-81249500D01*
X226007999Y-81249500D01*
X225829960Y-81264653D01*
X225599249Y-81324724D01*
X225382014Y-81422922D01*
X225184497Y-81556420D01*
X225012381Y-81721379D01*
X224870621Y-81913052D01*
X224763293Y-82125925D01*
X224728842Y-82238419D01*
X224693484Y-82353877D01*
X224663202Y-82590346D01*
X224663202Y-82590349D01*
X224663202Y-82590350D01*
X211196963Y-82590350D01*
X211226739Y-82526496D01*
X211285635Y-82306692D01*
X211305468Y-82080000D01*
X211285635Y-81853308D01*
X211226739Y-81633504D01*
X211130568Y-81427266D01*
X211127526Y-81422922D01*
X211000046Y-81240859D01*
X210839140Y-81079953D01*
X210652733Y-80949431D01*
X210594725Y-80922382D01*
X210542549Y-80876625D01*
X210523129Y-80810000D01*
X210542549Y-80743375D01*
X210594725Y-80697618D01*
X210601343Y-80694532D01*
X210652734Y-80670568D01*
X210839139Y-80540047D01*
X211000047Y-80379139D01*
X211130568Y-80192734D01*
X211226739Y-79986496D01*
X211285635Y-79766692D01*
X211305468Y-79540000D01*
X211285635Y-79313308D01*
X211226739Y-79093504D01*
X211130568Y-78887266D01*
X211055705Y-78780350D01*
X224663202Y-78780350D01*
X224673319Y-79018529D01*
X224689514Y-79093673D01*
X224723546Y-79251581D01*
X224812436Y-79472790D01*
X224937431Y-79675795D01*
X225019127Y-79768620D01*
X225094937Y-79854756D01*
X225280414Y-80004519D01*
X225280417Y-80004520D01*
X225280420Y-80004523D01*
X225488546Y-80120790D01*
X225488548Y-80120791D01*
X225713331Y-80200212D01*
X225948297Y-80240500D01*
X225948300Y-80240500D01*
X227926997Y-80240500D01*
X227927001Y-80240500D01*
X228045692Y-80230397D01*
X228105041Y-80225346D01*
X228258846Y-80185298D01*
X228335750Y-80165275D01*
X228444367Y-80116176D01*
X228552986Y-80067077D01*
X228750503Y-79933579D01*
X228922618Y-79768621D01*
X229064379Y-79576947D01*
X229171707Y-79364074D01*
X229241516Y-79136123D01*
X229271798Y-78899654D01*
X229261680Y-78661468D01*
X229211454Y-78428419D01*
X229122564Y-78207210D01*
X228997569Y-78004205D01*
X228840064Y-77825245D01*
X228840062Y-77825243D01*
X228654585Y-77675480D01*
X228446451Y-77559208D01*
X228221668Y-77479787D01*
X227986703Y-77439500D01*
X227986700Y-77439500D01*
X226008003Y-77439500D01*
X226007999Y-77439500D01*
X225829960Y-77454653D01*
X225599249Y-77514724D01*
X225382014Y-77612922D01*
X225184497Y-77746420D01*
X225012381Y-77911379D01*
X224870621Y-78103052D01*
X224763293Y-78315925D01*
X224694685Y-78539953D01*
X224693484Y-78543877D01*
X224663202Y-78780346D01*
X224663202Y-78780349D01*
X224663202Y-78780350D01*
X211055705Y-78780350D01*
X211000046Y-78700859D01*
X210839140Y-78539953D01*
X210652736Y-78409433D01*
X210652730Y-78409430D01*
X210594132Y-78382105D01*
X210541958Y-78336348D01*
X210522539Y-78269723D01*
X210541959Y-78203098D01*
X210594135Y-78157342D01*
X210652479Y-78130135D01*
X210838819Y-77999658D01*
X210999658Y-77838819D01*
X211130134Y-77652480D01*
X211226266Y-77446326D01*
X211278872Y-77250000D01*
X208721128Y-77250000D01*
X208773733Y-77446326D01*
X208869865Y-77652480D01*
X209000341Y-77838819D01*
X209161180Y-77999658D01*
X209347519Y-78130134D01*
X209405865Y-78157342D01*
X209458040Y-78203099D01*
X209477460Y-78269723D01*
X209458041Y-78336348D01*
X209405866Y-78382105D01*
X209347267Y-78409430D01*
X209160859Y-78539953D01*
X208999953Y-78700859D01*
X208869432Y-78887264D01*
X208773261Y-79093502D01*
X208714364Y-79313310D01*
X208694531Y-79539999D01*
X208714364Y-79766689D01*
X208773261Y-79986497D01*
X208869432Y-80192735D01*
X208999953Y-80379140D01*
X209160859Y-80540046D01*
X209347263Y-80670566D01*
X209347266Y-80670568D01*
X209398657Y-80694532D01*
X209405275Y-80697618D01*
X209457450Y-80743375D01*
X209476869Y-80810000D01*
X209457450Y-80876625D01*
X209405275Y-80922382D01*
X209347263Y-80949433D01*
X209160859Y-81079953D01*
X208999953Y-81240859D01*
X208869432Y-81427264D01*
X208773261Y-81633502D01*
X208714364Y-81853310D01*
X208694531Y-82079999D01*
X208714364Y-82306689D01*
X208773261Y-82526497D01*
X208869432Y-82732735D01*
X208999953Y-82919140D01*
X209160859Y-83080046D01*
X209347263Y-83210566D01*
X209347266Y-83210568D01*
X209381945Y-83226739D01*
X209405275Y-83237618D01*
X209457450Y-83283375D01*
X209476869Y-83350000D01*
X209457450Y-83416625D01*
X209405275Y-83462382D01*
X209347263Y-83489433D01*
X209160859Y-83619953D01*
X208999953Y-83780859D01*
X208869432Y-83967264D01*
X208773261Y-84173502D01*
X208714364Y-84393310D01*
X208694531Y-84619999D01*
X203685468Y-84619999D01*
X203665635Y-84393308D01*
X203606739Y-84173504D01*
X203510568Y-83967266D01*
X203485028Y-83930791D01*
X203380046Y-83780859D01*
X203219140Y-83619953D01*
X203032733Y-83489431D01*
X202974725Y-83462382D01*
X202922549Y-83416625D01*
X202903129Y-83350000D01*
X202922549Y-83283375D01*
X202974725Y-83237618D01*
X202998055Y-83226739D01*
X203032734Y-83210568D01*
X203219139Y-83080047D01*
X203380047Y-82919139D01*
X203510568Y-82732734D01*
X203606739Y-82526496D01*
X203665635Y-82306692D01*
X203685468Y-82080000D01*
X203665635Y-81853308D01*
X203606739Y-81633504D01*
X203510568Y-81427266D01*
X203507526Y-81422922D01*
X203380046Y-81240859D01*
X203219140Y-81079953D01*
X203032736Y-80949433D01*
X202974725Y-80922382D01*
X202974132Y-80922105D01*
X202921958Y-80876348D01*
X202902539Y-80809723D01*
X202921959Y-80743098D01*
X202974135Y-80697342D01*
X203032479Y-80670135D01*
X203218819Y-80539658D01*
X203379658Y-80378819D01*
X203510134Y-80192480D01*
X203606266Y-79986326D01*
X203658872Y-79790000D01*
X201101128Y-79790000D01*
X201153733Y-79986326D01*
X201249865Y-80192480D01*
X201380341Y-80378819D01*
X201541180Y-80539658D01*
X201727519Y-80670134D01*
X201785865Y-80697342D01*
X201838040Y-80743099D01*
X201857460Y-80809723D01*
X201838041Y-80876348D01*
X201785866Y-80922105D01*
X201727267Y-80949430D01*
X201540859Y-81079953D01*
X201379953Y-81240859D01*
X201249432Y-81427264D01*
X201153261Y-81633502D01*
X201094364Y-81853310D01*
X201074531Y-82079999D01*
X201094364Y-82306689D01*
X201153261Y-82526497D01*
X201249432Y-82732735D01*
X201379953Y-82919140D01*
X201540859Y-83080046D01*
X201727263Y-83210566D01*
X201727266Y-83210568D01*
X201761945Y-83226739D01*
X201785275Y-83237618D01*
X201837450Y-83283375D01*
X201856869Y-83350000D01*
X201837450Y-83416625D01*
X201785275Y-83462382D01*
X201727263Y-83489433D01*
X201540859Y-83619953D01*
X201379953Y-83780859D01*
X201249432Y-83967264D01*
X201153261Y-84173502D01*
X201094364Y-84393310D01*
X201074531Y-84619999D01*
X160540401Y-84619999D01*
X160530435Y-84608330D01*
X160517963Y-84591163D01*
X160482779Y-84562056D01*
X160474140Y-84554194D01*
X157919946Y-82000000D01*
X195694531Y-82000000D01*
X195714364Y-82226689D01*
X195773261Y-82446497D01*
X195869432Y-82652735D01*
X195999953Y-82839140D01*
X196160859Y-83000046D01*
X196347264Y-83130567D01*
X196347265Y-83130567D01*
X196347266Y-83130568D01*
X196553504Y-83226739D01*
X196773308Y-83285635D01*
X197000000Y-83305468D01*
X197226692Y-83285635D01*
X197446496Y-83226739D01*
X197652734Y-83130568D01*
X197839139Y-83000047D01*
X198000047Y-82839139D01*
X198130568Y-82652734D01*
X198226739Y-82446496D01*
X198285635Y-82226692D01*
X198305468Y-82000000D01*
X198285635Y-81773308D01*
X198226739Y-81553504D01*
X198130568Y-81347266D01*
X198090321Y-81289787D01*
X198000046Y-81160859D01*
X197839140Y-80999953D01*
X197652735Y-80869432D01*
X197446497Y-80773261D01*
X197226689Y-80714364D01*
X196999999Y-80694531D01*
X196773310Y-80714364D01*
X196553502Y-80773261D01*
X196347264Y-80869432D01*
X196160859Y-80999953D01*
X195999953Y-81160859D01*
X195869432Y-81347264D01*
X195773261Y-81553502D01*
X195714364Y-81773310D01*
X195694531Y-82000000D01*
X157919946Y-82000000D01*
X157722575Y-81802629D01*
X157693626Y-81757059D01*
X157686785Y-81703509D01*
X157705643Y-81500000D01*
X157685115Y-81278464D01*
X157651654Y-81160861D01*
X157624230Y-81064473D01*
X157525058Y-80865311D01*
X157390980Y-80687762D01*
X157226562Y-80537875D01*
X157037404Y-80420754D01*
X156976174Y-80397033D01*
X156829940Y-80340382D01*
X156611243Y-80299500D01*
X156388757Y-80299500D01*
X156170059Y-80340382D01*
X156170060Y-80340382D01*
X155962595Y-80420754D01*
X155773437Y-80537875D01*
X155609019Y-80687762D01*
X155474941Y-80865311D01*
X155375769Y-81064473D01*
X155314885Y-81278462D01*
X155294357Y-81499999D01*
X149000500Y-81499999D01*
X149000500Y-78079026D01*
X159274526Y-78079026D01*
X159347515Y-78130133D01*
X159553673Y-78226266D01*
X159773397Y-78285141D01*
X160000000Y-78304966D01*
X160226602Y-78285141D01*
X160446326Y-78226266D01*
X160652480Y-78130134D01*
X160725471Y-78079026D01*
X196274526Y-78079026D01*
X196347515Y-78130133D01*
X196553673Y-78226266D01*
X196773397Y-78285141D01*
X197000000Y-78304966D01*
X197226602Y-78285141D01*
X197446326Y-78226266D01*
X197652480Y-78130134D01*
X197725472Y-78079025D01*
X197494316Y-77847869D01*
X201079500Y-77847869D01*
X201085909Y-77907483D01*
X201136204Y-78042331D01*
X201222454Y-78157546D01*
X201337669Y-78243796D01*
X201472517Y-78294091D01*
X201508352Y-78297943D01*
X201564272Y-78318322D01*
X201604256Y-78362410D01*
X201619090Y-78420051D01*
X201605357Y-78477964D01*
X201566221Y-78522807D01*
X201541182Y-78540339D01*
X201380341Y-78701180D01*
X201249865Y-78887519D01*
X201153733Y-79093673D01*
X201101128Y-79289999D01*
X201101128Y-79290000D01*
X203658872Y-79290000D01*
X203658871Y-79289999D01*
X203606266Y-79093673D01*
X203510134Y-78887519D01*
X203379658Y-78701180D01*
X203218819Y-78540341D01*
X203193778Y-78522807D01*
X203154641Y-78477964D01*
X203140908Y-78420050D01*
X203155743Y-78362408D01*
X203195728Y-78318320D01*
X203251647Y-78297943D01*
X203287483Y-78294091D01*
X203422331Y-78243796D01*
X203537546Y-78157546D01*
X203623796Y-78042331D01*
X203674091Y-77907483D01*
X203680500Y-77847873D01*
X203680499Y-76750000D01*
X208721128Y-76750000D01*
X209750000Y-76750000D01*
X209750000Y-75721128D01*
X210250000Y-75721128D01*
X210250000Y-76750000D01*
X211278872Y-76750000D01*
X211278871Y-76749999D01*
X211226266Y-76553673D01*
X211130134Y-76347519D01*
X210999658Y-76161180D01*
X210838819Y-76000341D01*
X210652480Y-75869865D01*
X210446326Y-75773733D01*
X210250000Y-75721128D01*
X209750000Y-75721128D01*
X209749999Y-75721128D01*
X209553673Y-75773733D01*
X209347519Y-75869865D01*
X209161180Y-76000341D01*
X209000341Y-76161180D01*
X208869865Y-76347519D01*
X208773733Y-76553673D01*
X208721128Y-76749999D01*
X208721128Y-76750000D01*
X203680499Y-76750000D01*
X203680499Y-76152128D01*
X203674091Y-76092517D01*
X203623796Y-75957669D01*
X203537546Y-75842454D01*
X203422331Y-75756204D01*
X203287483Y-75705909D01*
X203227873Y-75699500D01*
X203227869Y-75699500D01*
X201532130Y-75699500D01*
X201472515Y-75705909D01*
X201337669Y-75756204D01*
X201222454Y-75842454D01*
X201136204Y-75957668D01*
X201085909Y-76092516D01*
X201079500Y-76152130D01*
X201079500Y-77847869D01*
X197494316Y-77847869D01*
X197000001Y-77353553D01*
X197000000Y-77353553D01*
X196274526Y-78079025D01*
X196274526Y-78079026D01*
X160725471Y-78079026D01*
X160725472Y-78079025D01*
X160000001Y-77353553D01*
X160000000Y-77353553D01*
X159274526Y-78079025D01*
X159274526Y-78079026D01*
X149000500Y-78079026D01*
X149000500Y-77000000D01*
X158695033Y-77000000D01*
X158714858Y-77226602D01*
X158773733Y-77446326D01*
X158869866Y-77652484D01*
X158920972Y-77725471D01*
X158920974Y-77725472D01*
X159646446Y-77000001D01*
X160353553Y-77000001D01*
X161079025Y-77725472D01*
X161130134Y-77652480D01*
X161226266Y-77446326D01*
X161285141Y-77226602D01*
X161304966Y-77000000D01*
X195695033Y-77000000D01*
X195714858Y-77226602D01*
X195773733Y-77446326D01*
X195869866Y-77652484D01*
X195920972Y-77725471D01*
X195920974Y-77725472D01*
X196646446Y-77000001D01*
X197353553Y-77000001D01*
X198079025Y-77725472D01*
X198130134Y-77652480D01*
X198226266Y-77446326D01*
X198285141Y-77226602D01*
X198304966Y-77000000D01*
X198285141Y-76773397D01*
X198226266Y-76553673D01*
X198130133Y-76347515D01*
X198079025Y-76274526D01*
X197353553Y-77000000D01*
X197353553Y-77000001D01*
X196646446Y-77000001D01*
X196646446Y-77000000D01*
X195920973Y-76274526D01*
X195920973Y-76274527D01*
X195869865Y-76347516D01*
X195773733Y-76553672D01*
X195714858Y-76773397D01*
X195695033Y-77000000D01*
X161304966Y-77000000D01*
X161285141Y-76773397D01*
X161226266Y-76553673D01*
X161130133Y-76347515D01*
X161079025Y-76274526D01*
X160353553Y-77000000D01*
X160353553Y-77000001D01*
X159646446Y-77000001D01*
X159646446Y-77000000D01*
X158920973Y-76274526D01*
X158920973Y-76274527D01*
X158869865Y-76347516D01*
X158773733Y-76553672D01*
X158714858Y-76773397D01*
X158695033Y-77000000D01*
X149000500Y-77000000D01*
X149000500Y-75920973D01*
X159274526Y-75920973D01*
X160000000Y-76646446D01*
X160000001Y-76646446D01*
X160725472Y-75920974D01*
X160725471Y-75920973D01*
X196274526Y-75920973D01*
X197000000Y-76646446D01*
X197000001Y-76646446D01*
X197725472Y-75920974D01*
X197725471Y-75920972D01*
X197652484Y-75869866D01*
X197446326Y-75773733D01*
X197226602Y-75714858D01*
X197000000Y-75695033D01*
X196773397Y-75714858D01*
X196553672Y-75773733D01*
X196347516Y-75869865D01*
X196274527Y-75920973D01*
X196274526Y-75920973D01*
X160725471Y-75920973D01*
X160725471Y-75920972D01*
X160652484Y-75869866D01*
X160446326Y-75773733D01*
X160226602Y-75714858D01*
X160000000Y-75695033D01*
X159773397Y-75714858D01*
X159553672Y-75773733D01*
X159347516Y-75869865D01*
X159274527Y-75920973D01*
X159274526Y-75920973D01*
X149000500Y-75920973D01*
X149000500Y-74970350D01*
X224663202Y-74970350D01*
X224673319Y-75208529D01*
X224673320Y-75208532D01*
X224723546Y-75441581D01*
X224812436Y-75662790D01*
X224937431Y-75865795D01*
X225019127Y-75958620D01*
X225094937Y-76044756D01*
X225280414Y-76194519D01*
X225280417Y-76194520D01*
X225280420Y-76194523D01*
X225423631Y-76274526D01*
X225488548Y-76310791D01*
X225713331Y-76390212D01*
X225948297Y-76430500D01*
X225948300Y-76430500D01*
X227926997Y-76430500D01*
X227927001Y-76430500D01*
X228045693Y-76420397D01*
X228105041Y-76415346D01*
X228258846Y-76375298D01*
X228335750Y-76355275D01*
X228444367Y-76306176D01*
X228552986Y-76257077D01*
X228750503Y-76123579D01*
X228922618Y-75958621D01*
X229064379Y-75766947D01*
X229171707Y-75554074D01*
X229241516Y-75326123D01*
X229271798Y-75089654D01*
X229261680Y-74851468D01*
X229211454Y-74618419D01*
X229122564Y-74397210D01*
X228997569Y-74194205D01*
X228840064Y-74015245D01*
X228840062Y-74015243D01*
X228654585Y-73865480D01*
X228446451Y-73749208D01*
X228221668Y-73669787D01*
X227986703Y-73629500D01*
X227986700Y-73629500D01*
X226008003Y-73629500D01*
X226007999Y-73629500D01*
X225829960Y-73644653D01*
X225599249Y-73704724D01*
X225382014Y-73802922D01*
X225184497Y-73936420D01*
X225012381Y-74101379D01*
X224870621Y-74293052D01*
X224763293Y-74505925D01*
X224728842Y-74618419D01*
X224693484Y-74733877D01*
X224663202Y-74970346D01*
X224663202Y-74970349D01*
X224663202Y-74970350D01*
X149000500Y-74970350D01*
X149000500Y-72000000D01*
X158694531Y-72000000D01*
X158714364Y-72226689D01*
X158773261Y-72446497D01*
X158869432Y-72652735D01*
X158999953Y-72839140D01*
X159160859Y-73000046D01*
X159347264Y-73130567D01*
X159347265Y-73130567D01*
X159347266Y-73130568D01*
X159553504Y-73226739D01*
X159773308Y-73285635D01*
X160000000Y-73305468D01*
X160226692Y-73285635D01*
X160446496Y-73226739D01*
X160652734Y-73130568D01*
X160839139Y-73000047D01*
X161000047Y-72839139D01*
X161130568Y-72652734D01*
X161226739Y-72446496D01*
X161285635Y-72226692D01*
X161305468Y-72000000D01*
X161285635Y-71773308D01*
X161226739Y-71553504D01*
X161130568Y-71347266D01*
X161118828Y-71330500D01*
X161000046Y-71160859D01*
X160839140Y-70999953D01*
X160664784Y-70877869D01*
X188349500Y-70877869D01*
X188355909Y-70937484D01*
X188377718Y-70995957D01*
X188406204Y-71072331D01*
X188492454Y-71187546D01*
X188607669Y-71273796D01*
X188742517Y-71324091D01*
X188802127Y-71330500D01*
X191197872Y-71330499D01*
X191257483Y-71324091D01*
X191392331Y-71273796D01*
X191507546Y-71187546D01*
X191593796Y-71072331D01*
X191644091Y-70937483D01*
X191650500Y-70877873D01*
X191650499Y-69282128D01*
X191644091Y-69222517D01*
X191593796Y-69087669D01*
X191507546Y-68972454D01*
X191392331Y-68886204D01*
X191257483Y-68835909D01*
X191197873Y-68829500D01*
X191197869Y-68829500D01*
X191133414Y-68829500D01*
X191073677Y-68814162D01*
X191028717Y-68771943D01*
X191009659Y-68713286D01*
X191021215Y-68652703D01*
X191060529Y-68605182D01*
X191225743Y-68485146D01*
X191381241Y-68322508D01*
X191505193Y-68134728D01*
X191593625Y-67927833D01*
X191625084Y-67790000D01*
X188372450Y-67790000D01*
X188372448Y-67790001D01*
X188376414Y-67819272D01*
X188445944Y-68033265D01*
X188552569Y-68231407D01*
X188692853Y-68407318D01*
X188862297Y-68555357D01*
X188935430Y-68599052D01*
X188979952Y-68644789D01*
X188995826Y-68706612D01*
X188978846Y-68768141D01*
X188933511Y-68813072D01*
X188871833Y-68829500D01*
X188802130Y-68829500D01*
X188742515Y-68835909D01*
X188607669Y-68886204D01*
X188492454Y-68972454D01*
X188406204Y-69087668D01*
X188355909Y-69222515D01*
X188355909Y-69222517D01*
X188350493Y-69272897D01*
X188349500Y-69282130D01*
X188349500Y-70877869D01*
X160664784Y-70877869D01*
X160652735Y-70869432D01*
X160446497Y-70773261D01*
X160226689Y-70714364D01*
X160000000Y-70694531D01*
X159773310Y-70714364D01*
X159553502Y-70773261D01*
X159347264Y-70869432D01*
X159160859Y-70999953D01*
X158999953Y-71160859D01*
X158869432Y-71347264D01*
X158773261Y-71553502D01*
X158714364Y-71773310D01*
X158694531Y-72000000D01*
X149000500Y-72000000D01*
X149000500Y-71004067D01*
X149000765Y-70995957D01*
X149003826Y-70949258D01*
X149017075Y-70747102D01*
X149019190Y-70731048D01*
X149067045Y-70490462D01*
X149071243Y-70474797D01*
X149094337Y-70406762D01*
X149150093Y-70242512D01*
X149156291Y-70227547D01*
X149264790Y-70007533D01*
X149272893Y-69993498D01*
X149409182Y-69789527D01*
X149419039Y-69776681D01*
X149580786Y-69592244D01*
X149592244Y-69580786D01*
X149776681Y-69419039D01*
X149789527Y-69409182D01*
X149993498Y-69272893D01*
X150007533Y-69264790D01*
X150227547Y-69156291D01*
X150242512Y-69150093D01*
X150426410Y-69087668D01*
X150474797Y-69071243D01*
X150490464Y-69067045D01*
X150731048Y-69019190D01*
X150747102Y-69017075D01*
X150995956Y-69000765D01*
X151004067Y-69000500D01*
X156185269Y-69000500D01*
X156196083Y-69000000D01*
X168000000Y-69000000D01*
X168000000Y-65056328D01*
X188345709Y-65056328D01*
X188375925Y-65279388D01*
X188411211Y-65387988D01*
X188445483Y-65493464D01*
X188552148Y-65691681D01*
X188692492Y-65867666D01*
X188862004Y-66015765D01*
X189055236Y-66131215D01*
X189096897Y-66146850D01*
X189114747Y-66153550D01*
X189162327Y-66185574D01*
X189190407Y-66235582D01*
X189192981Y-66292878D01*
X189169496Y-66345203D01*
X189124979Y-66381363D01*
X188956285Y-66462601D01*
X188774254Y-66594855D01*
X188618758Y-66757491D01*
X188494806Y-66945271D01*
X188406374Y-67152166D01*
X188374915Y-67289999D01*
X188374916Y-67290000D01*
X191627550Y-67290000D01*
X191627551Y-67289998D01*
X191623585Y-67260727D01*
X191554055Y-67046734D01*
X191447430Y-66848592D01*
X191307146Y-66672681D01*
X191137700Y-66524640D01*
X190944548Y-66409237D01*
X190885276Y-66386992D01*
X190837697Y-66354968D01*
X190809616Y-66304959D01*
X190807043Y-66247663D01*
X190830528Y-66195339D01*
X190875045Y-66159179D01*
X191043973Y-66077829D01*
X191226078Y-65945522D01*
X191381632Y-65782825D01*
X191505635Y-65594968D01*
X191594103Y-65387988D01*
X191644191Y-65168537D01*
X191654290Y-64943670D01*
X191624075Y-64720613D01*
X191554517Y-64506536D01*
X191447852Y-64308319D01*
X191307508Y-64132334D01*
X191137996Y-63984235D01*
X191137993Y-63984233D01*
X190944762Y-63868783D01*
X190734025Y-63789693D01*
X190512547Y-63749500D01*
X189543845Y-63749500D01*
X189476631Y-63755549D01*
X189375809Y-63764623D01*
X189158828Y-63824507D01*
X188956027Y-63922170D01*
X188773925Y-64054475D01*
X188618365Y-64217178D01*
X188494365Y-64405031D01*
X188405896Y-64612012D01*
X188355809Y-64831462D01*
X188345709Y-65056328D01*
X168000000Y-65056328D01*
X168000000Y-61124500D01*
X168016613Y-61062500D01*
X168062000Y-61017113D01*
X168124000Y-61000500D01*
X211876000Y-61000500D01*
X211938000Y-61017113D01*
G37*
%TD.AperFunction*%
%TD*%
M02*
