%TF.GenerationSoftware,KiCad,Pcbnew,7.0.1-0*%
%TF.CreationDate,2023-04-18T17:15:32-07:00*%
%TF.ProjectId,rv,72762e6b-6963-4616-945f-706362585858,rev?*%
%TF.SameCoordinates,Original*%
%TF.FileFunction,Legend,Bot*%
%TF.FilePolarity,Positive*%
%FSLAX46Y46*%
G04 Gerber Fmt 4.6, Leading zero omitted, Abs format (unit mm)*
G04 Created by KiCad (PCBNEW 7.0.1-0) date 2023-04-18 17:15:32*
%MOMM*%
%LPD*%
G01*
G04 APERTURE LIST*
%ADD10C,0.200000*%
G04 APERTURE END LIST*
D10*
X152773857Y-53514523D02*
X152831000Y-53466904D01*
X152831000Y-53466904D02*
X152888142Y-53324047D01*
X152888142Y-53324047D02*
X152888142Y-53228809D01*
X152888142Y-53228809D02*
X152831000Y-53085952D01*
X152831000Y-53085952D02*
X152716714Y-52990714D01*
X152716714Y-52990714D02*
X152602428Y-52943095D01*
X152602428Y-52943095D02*
X152373857Y-52895476D01*
X152373857Y-52895476D02*
X152202428Y-52895476D01*
X152202428Y-52895476D02*
X151973857Y-52943095D01*
X151973857Y-52943095D02*
X151859571Y-52990714D01*
X151859571Y-52990714D02*
X151745285Y-53085952D01*
X151745285Y-53085952D02*
X151688142Y-53228809D01*
X151688142Y-53228809D02*
X151688142Y-53324047D01*
X151688142Y-53324047D02*
X151745285Y-53466904D01*
X151745285Y-53466904D02*
X151802428Y-53514523D01*
X152545285Y-53895476D02*
X152545285Y-54371666D01*
X152888142Y-53800238D02*
X151688142Y-54133571D01*
X151688142Y-54133571D02*
X152888142Y-54466904D01*
X152888142Y-54800238D02*
X151688142Y-54800238D01*
X151688142Y-54800238D02*
X152888142Y-55371666D01*
X152888142Y-55371666D02*
X151688142Y-55371666D01*
X151745285Y-38226904D02*
X151688142Y-38131666D01*
X151688142Y-38131666D02*
X151688142Y-37988809D01*
X151688142Y-37988809D02*
X151745285Y-37845952D01*
X151745285Y-37845952D02*
X151859571Y-37750714D01*
X151859571Y-37750714D02*
X151973857Y-37703095D01*
X151973857Y-37703095D02*
X152202428Y-37655476D01*
X152202428Y-37655476D02*
X152373857Y-37655476D01*
X152373857Y-37655476D02*
X152602428Y-37703095D01*
X152602428Y-37703095D02*
X152716714Y-37750714D01*
X152716714Y-37750714D02*
X152831000Y-37845952D01*
X152831000Y-37845952D02*
X152888142Y-37988809D01*
X152888142Y-37988809D02*
X152888142Y-38084047D01*
X152888142Y-38084047D02*
X152831000Y-38226904D01*
X152831000Y-38226904D02*
X152773857Y-38274523D01*
X152773857Y-38274523D02*
X152373857Y-38274523D01*
X152373857Y-38274523D02*
X152373857Y-38084047D01*
X152888142Y-38703095D02*
X151688142Y-38703095D01*
X151688142Y-38703095D02*
X151688142Y-39084047D01*
X151688142Y-39084047D02*
X151745285Y-39179285D01*
X151745285Y-39179285D02*
X151802428Y-39226904D01*
X151802428Y-39226904D02*
X151916714Y-39274523D01*
X151916714Y-39274523D02*
X152088142Y-39274523D01*
X152088142Y-39274523D02*
X152202428Y-39226904D01*
X152202428Y-39226904D02*
X152259571Y-39179285D01*
X152259571Y-39179285D02*
X152316714Y-39084047D01*
X152316714Y-39084047D02*
X152316714Y-38703095D01*
X152831000Y-39655476D02*
X152888142Y-39798333D01*
X152888142Y-39798333D02*
X152888142Y-40036428D01*
X152888142Y-40036428D02*
X152831000Y-40131666D01*
X152831000Y-40131666D02*
X152773857Y-40179285D01*
X152773857Y-40179285D02*
X152659571Y-40226904D01*
X152659571Y-40226904D02*
X152545285Y-40226904D01*
X152545285Y-40226904D02*
X152431000Y-40179285D01*
X152431000Y-40179285D02*
X152373857Y-40131666D01*
X152373857Y-40131666D02*
X152316714Y-40036428D01*
X152316714Y-40036428D02*
X152259571Y-39845952D01*
X152259571Y-39845952D02*
X152202428Y-39750714D01*
X152202428Y-39750714D02*
X152145285Y-39703095D01*
X152145285Y-39703095D02*
X152031000Y-39655476D01*
X152031000Y-39655476D02*
X151916714Y-39655476D01*
X151916714Y-39655476D02*
X151802428Y-39703095D01*
X151802428Y-39703095D02*
X151745285Y-39750714D01*
X151745285Y-39750714D02*
X151688142Y-39845952D01*
X151688142Y-39845952D02*
X151688142Y-40084047D01*
X151688142Y-40084047D02*
X151745285Y-40226904D01*
M02*
