%TF.GenerationSoftware,KiCad,Pcbnew,7.0.1-0*%
%TF.CreationDate,2023-04-18T17:15:31-07:00*%
%TF.ProjectId,rv,72762e6b-6963-4616-945f-706362585858,rev?*%
%TF.SameCoordinates,Original*%
%TF.FileFunction,Legend,Top*%
%TF.FilePolarity,Positive*%
%FSLAX46Y46*%
G04 Gerber Fmt 4.6, Leading zero omitted, Abs format (unit mm)*
G04 Created by KiCad (PCBNEW 7.0.1-0) date 2023-04-18 17:15:31*
%MOMM*%
%LPD*%
G01*
G04 APERTURE LIST*
%ADD10C,0.150000*%
%ADD11C,0.100000*%
%ADD12C,0.120000*%
%ADD13C,0.127000*%
%ADD14C,0.066040*%
%ADD15C,0.254000*%
G04 APERTURE END LIST*
D10*
%TO.C,C2*%
X181341733Y-61776980D02*
X181294114Y-61824600D01*
X181294114Y-61824600D02*
X181151257Y-61872219D01*
X181151257Y-61872219D02*
X181056019Y-61872219D01*
X181056019Y-61872219D02*
X180913162Y-61824600D01*
X180913162Y-61824600D02*
X180817924Y-61729361D01*
X180817924Y-61729361D02*
X180770305Y-61634123D01*
X180770305Y-61634123D02*
X180722686Y-61443647D01*
X180722686Y-61443647D02*
X180722686Y-61300790D01*
X180722686Y-61300790D02*
X180770305Y-61110314D01*
X180770305Y-61110314D02*
X180817924Y-61015076D01*
X180817924Y-61015076D02*
X180913162Y-60919838D01*
X180913162Y-60919838D02*
X181056019Y-60872219D01*
X181056019Y-60872219D02*
X181151257Y-60872219D01*
X181151257Y-60872219D02*
X181294114Y-60919838D01*
X181294114Y-60919838D02*
X181341733Y-60967457D01*
X181722686Y-60967457D02*
X181770305Y-60919838D01*
X181770305Y-60919838D02*
X181865543Y-60872219D01*
X181865543Y-60872219D02*
X182103638Y-60872219D01*
X182103638Y-60872219D02*
X182198876Y-60919838D01*
X182198876Y-60919838D02*
X182246495Y-60967457D01*
X182246495Y-60967457D02*
X182294114Y-61062695D01*
X182294114Y-61062695D02*
X182294114Y-61157933D01*
X182294114Y-61157933D02*
X182246495Y-61300790D01*
X182246495Y-61300790D02*
X181675067Y-61872219D01*
X181675067Y-61872219D02*
X182294114Y-61872219D01*
%TO.C,J1*%
X160202619Y-54308333D02*
X160916904Y-54308333D01*
X160916904Y-54308333D02*
X161059761Y-54355952D01*
X161059761Y-54355952D02*
X161155000Y-54451190D01*
X161155000Y-54451190D02*
X161202619Y-54594047D01*
X161202619Y-54594047D02*
X161202619Y-54689285D01*
X161202619Y-53308333D02*
X161202619Y-53879761D01*
X161202619Y-53594047D02*
X160202619Y-53594047D01*
X160202619Y-53594047D02*
X160345476Y-53689285D01*
X160345476Y-53689285D02*
X160440714Y-53784523D01*
X160440714Y-53784523D02*
X160488333Y-53879761D01*
D11*
%TO.C,U1*%
X171827019Y-72135904D02*
X172636542Y-72135904D01*
X172636542Y-72135904D02*
X172731780Y-72088285D01*
X172731780Y-72088285D02*
X172779400Y-72040666D01*
X172779400Y-72040666D02*
X172827019Y-71945428D01*
X172827019Y-71945428D02*
X172827019Y-71754952D01*
X172827019Y-71754952D02*
X172779400Y-71659714D01*
X172779400Y-71659714D02*
X172731780Y-71612095D01*
X172731780Y-71612095D02*
X172636542Y-71564476D01*
X172636542Y-71564476D02*
X171827019Y-71564476D01*
X172827019Y-70564476D02*
X172827019Y-71135904D01*
X172827019Y-70850190D02*
X171827019Y-70850190D01*
X171827019Y-70850190D02*
X171969876Y-70945428D01*
X171969876Y-70945428D02*
X172065114Y-71040666D01*
X172065114Y-71040666D02*
X172112733Y-71135904D01*
X159127019Y-77408989D02*
X160127019Y-76742323D01*
X159127019Y-76742323D02*
X160127019Y-77408989D01*
X160127019Y-76361370D02*
X159127019Y-76361370D01*
X159841304Y-75932799D02*
X159841304Y-75456609D01*
X160127019Y-76028037D02*
X159127019Y-75694704D01*
X159127019Y-75694704D02*
X160127019Y-75361371D01*
X159127019Y-74837561D02*
X159127019Y-74647085D01*
X159127019Y-74647085D02*
X159174638Y-74551847D01*
X159174638Y-74551847D02*
X159269876Y-74456609D01*
X159269876Y-74456609D02*
X159460352Y-74408990D01*
X159460352Y-74408990D02*
X159793685Y-74408990D01*
X159793685Y-74408990D02*
X159984161Y-74456609D01*
X159984161Y-74456609D02*
X160079400Y-74551847D01*
X160079400Y-74551847D02*
X160127019Y-74647085D01*
X160127019Y-74647085D02*
X160127019Y-74837561D01*
X160127019Y-74837561D02*
X160079400Y-74932799D01*
X160079400Y-74932799D02*
X159984161Y-75028037D01*
X159984161Y-75028037D02*
X159793685Y-75075656D01*
X159793685Y-75075656D02*
X159460352Y-75075656D01*
X159460352Y-75075656D02*
X159269876Y-75028037D01*
X159269876Y-75028037D02*
X159174638Y-74932799D01*
X159174638Y-74932799D02*
X159127019Y-74837561D01*
X159746066Y-73980418D02*
X159746066Y-73218514D01*
X159603209Y-72742323D02*
X159603209Y-72408990D01*
X160127019Y-72266133D02*
X160127019Y-72742323D01*
X160127019Y-72742323D02*
X159127019Y-72742323D01*
X159127019Y-72742323D02*
X159127019Y-72266133D01*
X160079400Y-71885180D02*
X160127019Y-71742323D01*
X160127019Y-71742323D02*
X160127019Y-71504228D01*
X160127019Y-71504228D02*
X160079400Y-71408990D01*
X160079400Y-71408990D02*
X160031780Y-71361371D01*
X160031780Y-71361371D02*
X159936542Y-71313752D01*
X159936542Y-71313752D02*
X159841304Y-71313752D01*
X159841304Y-71313752D02*
X159746066Y-71361371D01*
X159746066Y-71361371D02*
X159698447Y-71408990D01*
X159698447Y-71408990D02*
X159650828Y-71504228D01*
X159650828Y-71504228D02*
X159603209Y-71694704D01*
X159603209Y-71694704D02*
X159555590Y-71789942D01*
X159555590Y-71789942D02*
X159507971Y-71837561D01*
X159507971Y-71837561D02*
X159412733Y-71885180D01*
X159412733Y-71885180D02*
X159317495Y-71885180D01*
X159317495Y-71885180D02*
X159222257Y-71837561D01*
X159222257Y-71837561D02*
X159174638Y-71789942D01*
X159174638Y-71789942D02*
X159127019Y-71694704D01*
X159127019Y-71694704D02*
X159127019Y-71456609D01*
X159127019Y-71456609D02*
X159174638Y-71313752D01*
X160127019Y-70885180D02*
X159127019Y-70885180D01*
X159127019Y-70885180D02*
X159127019Y-70504228D01*
X159127019Y-70504228D02*
X159174638Y-70408990D01*
X159174638Y-70408990D02*
X159222257Y-70361371D01*
X159222257Y-70361371D02*
X159317495Y-70313752D01*
X159317495Y-70313752D02*
X159460352Y-70313752D01*
X159460352Y-70313752D02*
X159555590Y-70361371D01*
X159555590Y-70361371D02*
X159603209Y-70408990D01*
X159603209Y-70408990D02*
X159650828Y-70504228D01*
X159650828Y-70504228D02*
X159650828Y-70885180D01*
X159127019Y-69980418D02*
X159127019Y-69361371D01*
X159127019Y-69361371D02*
X159507971Y-69694704D01*
X159507971Y-69694704D02*
X159507971Y-69551847D01*
X159507971Y-69551847D02*
X159555590Y-69456609D01*
X159555590Y-69456609D02*
X159603209Y-69408990D01*
X159603209Y-69408990D02*
X159698447Y-69361371D01*
X159698447Y-69361371D02*
X159936542Y-69361371D01*
X159936542Y-69361371D02*
X160031780Y-69408990D01*
X160031780Y-69408990D02*
X160079400Y-69456609D01*
X160079400Y-69456609D02*
X160127019Y-69551847D01*
X160127019Y-69551847D02*
X160127019Y-69837561D01*
X160127019Y-69837561D02*
X160079400Y-69932799D01*
X160079400Y-69932799D02*
X160031780Y-69980418D01*
X159222257Y-68980418D02*
X159174638Y-68932799D01*
X159174638Y-68932799D02*
X159127019Y-68837561D01*
X159127019Y-68837561D02*
X159127019Y-68599466D01*
X159127019Y-68599466D02*
X159174638Y-68504228D01*
X159174638Y-68504228D02*
X159222257Y-68456609D01*
X159222257Y-68456609D02*
X159317495Y-68408990D01*
X159317495Y-68408990D02*
X159412733Y-68408990D01*
X159412733Y-68408990D02*
X159555590Y-68456609D01*
X159555590Y-68456609D02*
X160127019Y-69028037D01*
X160127019Y-69028037D02*
X160127019Y-68408990D01*
X160079400Y-68028037D02*
X160127019Y-67885180D01*
X160127019Y-67885180D02*
X160127019Y-67647085D01*
X160127019Y-67647085D02*
X160079400Y-67551847D01*
X160079400Y-67551847D02*
X160031780Y-67504228D01*
X160031780Y-67504228D02*
X159936542Y-67456609D01*
X159936542Y-67456609D02*
X159841304Y-67456609D01*
X159841304Y-67456609D02*
X159746066Y-67504228D01*
X159746066Y-67504228D02*
X159698447Y-67551847D01*
X159698447Y-67551847D02*
X159650828Y-67647085D01*
X159650828Y-67647085D02*
X159603209Y-67837561D01*
X159603209Y-67837561D02*
X159555590Y-67932799D01*
X159555590Y-67932799D02*
X159507971Y-67980418D01*
X159507971Y-67980418D02*
X159412733Y-68028037D01*
X159412733Y-68028037D02*
X159317495Y-68028037D01*
X159317495Y-68028037D02*
X159222257Y-67980418D01*
X159222257Y-67980418D02*
X159174638Y-67932799D01*
X159174638Y-67932799D02*
X159127019Y-67837561D01*
X159127019Y-67837561D02*
X159127019Y-67599466D01*
X159127019Y-67599466D02*
X159174638Y-67456609D01*
X159127019Y-67123275D02*
X159127019Y-66504228D01*
X159127019Y-66504228D02*
X159507971Y-66837561D01*
X159507971Y-66837561D02*
X159507971Y-66694704D01*
X159507971Y-66694704D02*
X159555590Y-66599466D01*
X159555590Y-66599466D02*
X159603209Y-66551847D01*
X159603209Y-66551847D02*
X159698447Y-66504228D01*
X159698447Y-66504228D02*
X159936542Y-66504228D01*
X159936542Y-66504228D02*
X160031780Y-66551847D01*
X160031780Y-66551847D02*
X160079400Y-66599466D01*
X160079400Y-66599466D02*
X160127019Y-66694704D01*
X160127019Y-66694704D02*
X160127019Y-66980418D01*
X160127019Y-66980418D02*
X160079400Y-67075656D01*
X160079400Y-67075656D02*
X160031780Y-67123275D01*
D10*
%TO.C,J2*%
X160202619Y-39433333D02*
X160916904Y-39433333D01*
X160916904Y-39433333D02*
X161059761Y-39480952D01*
X161059761Y-39480952D02*
X161155000Y-39576190D01*
X161155000Y-39576190D02*
X161202619Y-39719047D01*
X161202619Y-39719047D02*
X161202619Y-39814285D01*
X160297857Y-39004761D02*
X160250238Y-38957142D01*
X160250238Y-38957142D02*
X160202619Y-38861904D01*
X160202619Y-38861904D02*
X160202619Y-38623809D01*
X160202619Y-38623809D02*
X160250238Y-38528571D01*
X160250238Y-38528571D02*
X160297857Y-38480952D01*
X160297857Y-38480952D02*
X160393095Y-38433333D01*
X160393095Y-38433333D02*
X160488333Y-38433333D01*
X160488333Y-38433333D02*
X160631190Y-38480952D01*
X160631190Y-38480952D02*
X161202619Y-39052380D01*
X161202619Y-39052380D02*
X161202619Y-38433333D01*
%TO.C,R1*%
X182408533Y-72039819D02*
X182075200Y-71563628D01*
X181837105Y-72039819D02*
X181837105Y-71039819D01*
X181837105Y-71039819D02*
X182218057Y-71039819D01*
X182218057Y-71039819D02*
X182313295Y-71087438D01*
X182313295Y-71087438D02*
X182360914Y-71135057D01*
X182360914Y-71135057D02*
X182408533Y-71230295D01*
X182408533Y-71230295D02*
X182408533Y-71373152D01*
X182408533Y-71373152D02*
X182360914Y-71468390D01*
X182360914Y-71468390D02*
X182313295Y-71516009D01*
X182313295Y-71516009D02*
X182218057Y-71563628D01*
X182218057Y-71563628D02*
X181837105Y-71563628D01*
X183360914Y-72039819D02*
X182789486Y-72039819D01*
X183075200Y-72039819D02*
X183075200Y-71039819D01*
X183075200Y-71039819D02*
X182979962Y-71182676D01*
X182979962Y-71182676D02*
X182884724Y-71277914D01*
X182884724Y-71277914D02*
X182789486Y-71325533D01*
%TO.C,D1*%
X216939905Y-72542619D02*
X216939905Y-71542619D01*
X216939905Y-71542619D02*
X217178000Y-71542619D01*
X217178000Y-71542619D02*
X217320857Y-71590238D01*
X217320857Y-71590238D02*
X217416095Y-71685476D01*
X217416095Y-71685476D02*
X217463714Y-71780714D01*
X217463714Y-71780714D02*
X217511333Y-71971190D01*
X217511333Y-71971190D02*
X217511333Y-72114047D01*
X217511333Y-72114047D02*
X217463714Y-72304523D01*
X217463714Y-72304523D02*
X217416095Y-72399761D01*
X217416095Y-72399761D02*
X217320857Y-72495000D01*
X217320857Y-72495000D02*
X217178000Y-72542619D01*
X217178000Y-72542619D02*
X216939905Y-72542619D01*
X218463714Y-72542619D02*
X217892286Y-72542619D01*
X218178000Y-72542619D02*
X218178000Y-71542619D01*
X218178000Y-71542619D02*
X218082762Y-71685476D01*
X218082762Y-71685476D02*
X217987524Y-71780714D01*
X217987524Y-71780714D02*
X217892286Y-71828333D01*
X222113714Y-70642619D02*
X221542286Y-70642619D01*
X221828000Y-70642619D02*
X221828000Y-69642619D01*
X221828000Y-69642619D02*
X221732762Y-69785476D01*
X221732762Y-69785476D02*
X221637524Y-69880714D01*
X221637524Y-69880714D02*
X221542286Y-69928333D01*
%TO.C,U2*%
X166243095Y-54297619D02*
X166243095Y-55107142D01*
X166243095Y-55107142D02*
X166290714Y-55202380D01*
X166290714Y-55202380D02*
X166338333Y-55250000D01*
X166338333Y-55250000D02*
X166433571Y-55297619D01*
X166433571Y-55297619D02*
X166624047Y-55297619D01*
X166624047Y-55297619D02*
X166719285Y-55250000D01*
X166719285Y-55250000D02*
X166766904Y-55202380D01*
X166766904Y-55202380D02*
X166814523Y-55107142D01*
X166814523Y-55107142D02*
X166814523Y-54297619D01*
X167243095Y-54392857D02*
X167290714Y-54345238D01*
X167290714Y-54345238D02*
X167385952Y-54297619D01*
X167385952Y-54297619D02*
X167624047Y-54297619D01*
X167624047Y-54297619D02*
X167719285Y-54345238D01*
X167719285Y-54345238D02*
X167766904Y-54392857D01*
X167766904Y-54392857D02*
X167814523Y-54488095D01*
X167814523Y-54488095D02*
X167814523Y-54583333D01*
X167814523Y-54583333D02*
X167766904Y-54726190D01*
X167766904Y-54726190D02*
X167195476Y-55297619D01*
X167195476Y-55297619D02*
X167814523Y-55297619D01*
%TO.C,U4*%
X182930895Y-63978619D02*
X182930895Y-64788142D01*
X182930895Y-64788142D02*
X182978514Y-64883380D01*
X182978514Y-64883380D02*
X183026133Y-64931000D01*
X183026133Y-64931000D02*
X183121371Y-64978619D01*
X183121371Y-64978619D02*
X183311847Y-64978619D01*
X183311847Y-64978619D02*
X183407085Y-64931000D01*
X183407085Y-64931000D02*
X183454704Y-64883380D01*
X183454704Y-64883380D02*
X183502323Y-64788142D01*
X183502323Y-64788142D02*
X183502323Y-63978619D01*
X184407085Y-64311952D02*
X184407085Y-64978619D01*
X184168990Y-63931000D02*
X183930895Y-64645285D01*
X183930895Y-64645285D02*
X184549942Y-64645285D01*
%TO.C,J3*%
X217598666Y-60974619D02*
X217598666Y-61688904D01*
X217598666Y-61688904D02*
X217551047Y-61831761D01*
X217551047Y-61831761D02*
X217455809Y-61927000D01*
X217455809Y-61927000D02*
X217312952Y-61974619D01*
X217312952Y-61974619D02*
X217217714Y-61974619D01*
X217979619Y-60974619D02*
X218598666Y-60974619D01*
X218598666Y-60974619D02*
X218265333Y-61355571D01*
X218265333Y-61355571D02*
X218408190Y-61355571D01*
X218408190Y-61355571D02*
X218503428Y-61403190D01*
X218503428Y-61403190D02*
X218551047Y-61450809D01*
X218551047Y-61450809D02*
X218598666Y-61546047D01*
X218598666Y-61546047D02*
X218598666Y-61784142D01*
X218598666Y-61784142D02*
X218551047Y-61879380D01*
X218551047Y-61879380D02*
X218503428Y-61927000D01*
X218503428Y-61927000D02*
X218408190Y-61974619D01*
X218408190Y-61974619D02*
X218122476Y-61974619D01*
X218122476Y-61974619D02*
X218027238Y-61927000D01*
X218027238Y-61927000D02*
X217979619Y-61879380D01*
%TO.C,C1*%
X176737380Y-53760666D02*
X176785000Y-53808285D01*
X176785000Y-53808285D02*
X176832619Y-53951142D01*
X176832619Y-53951142D02*
X176832619Y-54046380D01*
X176832619Y-54046380D02*
X176785000Y-54189237D01*
X176785000Y-54189237D02*
X176689761Y-54284475D01*
X176689761Y-54284475D02*
X176594523Y-54332094D01*
X176594523Y-54332094D02*
X176404047Y-54379713D01*
X176404047Y-54379713D02*
X176261190Y-54379713D01*
X176261190Y-54379713D02*
X176070714Y-54332094D01*
X176070714Y-54332094D02*
X175975476Y-54284475D01*
X175975476Y-54284475D02*
X175880238Y-54189237D01*
X175880238Y-54189237D02*
X175832619Y-54046380D01*
X175832619Y-54046380D02*
X175832619Y-53951142D01*
X175832619Y-53951142D02*
X175880238Y-53808285D01*
X175880238Y-53808285D02*
X175927857Y-53760666D01*
X176832619Y-52808285D02*
X176832619Y-53379713D01*
X176832619Y-53093999D02*
X175832619Y-53093999D01*
X175832619Y-53093999D02*
X175975476Y-53189237D01*
X175975476Y-53189237D02*
X176070714Y-53284475D01*
X176070714Y-53284475D02*
X176118333Y-53379713D01*
%TO.C,U5*%
X189902619Y-52831904D02*
X190712142Y-52831904D01*
X190712142Y-52831904D02*
X190807380Y-52784285D01*
X190807380Y-52784285D02*
X190855000Y-52736666D01*
X190855000Y-52736666D02*
X190902619Y-52641428D01*
X190902619Y-52641428D02*
X190902619Y-52450952D01*
X190902619Y-52450952D02*
X190855000Y-52355714D01*
X190855000Y-52355714D02*
X190807380Y-52308095D01*
X190807380Y-52308095D02*
X190712142Y-52260476D01*
X190712142Y-52260476D02*
X189902619Y-52260476D01*
X189902619Y-51308095D02*
X189902619Y-51784285D01*
X189902619Y-51784285D02*
X190378809Y-51831904D01*
X190378809Y-51831904D02*
X190331190Y-51784285D01*
X190331190Y-51784285D02*
X190283571Y-51689047D01*
X190283571Y-51689047D02*
X190283571Y-51450952D01*
X190283571Y-51450952D02*
X190331190Y-51355714D01*
X190331190Y-51355714D02*
X190378809Y-51308095D01*
X190378809Y-51308095D02*
X190474047Y-51260476D01*
X190474047Y-51260476D02*
X190712142Y-51260476D01*
X190712142Y-51260476D02*
X190807380Y-51308095D01*
X190807380Y-51308095D02*
X190855000Y-51355714D01*
X190855000Y-51355714D02*
X190902619Y-51450952D01*
X190902619Y-51450952D02*
X190902619Y-51689047D01*
X190902619Y-51689047D02*
X190855000Y-51784285D01*
X190855000Y-51784285D02*
X190807380Y-51831904D01*
%TO.C,R2*%
X182357733Y-69804619D02*
X182024400Y-69328428D01*
X181786305Y-69804619D02*
X181786305Y-68804619D01*
X181786305Y-68804619D02*
X182167257Y-68804619D01*
X182167257Y-68804619D02*
X182262495Y-68852238D01*
X182262495Y-68852238D02*
X182310114Y-68899857D01*
X182310114Y-68899857D02*
X182357733Y-68995095D01*
X182357733Y-68995095D02*
X182357733Y-69137952D01*
X182357733Y-69137952D02*
X182310114Y-69233190D01*
X182310114Y-69233190D02*
X182262495Y-69280809D01*
X182262495Y-69280809D02*
X182167257Y-69328428D01*
X182167257Y-69328428D02*
X181786305Y-69328428D01*
X182738686Y-68899857D02*
X182786305Y-68852238D01*
X182786305Y-68852238D02*
X182881543Y-68804619D01*
X182881543Y-68804619D02*
X183119638Y-68804619D01*
X183119638Y-68804619D02*
X183214876Y-68852238D01*
X183214876Y-68852238D02*
X183262495Y-68899857D01*
X183262495Y-68899857D02*
X183310114Y-68995095D01*
X183310114Y-68995095D02*
X183310114Y-69090333D01*
X183310114Y-69090333D02*
X183262495Y-69233190D01*
X183262495Y-69233190D02*
X182691067Y-69804619D01*
X182691067Y-69804619D02*
X183310114Y-69804619D01*
D12*
%TO.C,C2*%
X181271142Y-63362100D02*
X181745658Y-63362100D01*
X181271142Y-62317100D02*
X181745658Y-62317100D01*
%TO.C,J1*%
X154000000Y-60035000D02*
X158250000Y-60035000D01*
X158250000Y-60035000D02*
X158250000Y-59015000D01*
X156650000Y-59015000D02*
X156650000Y-57735000D01*
X158250000Y-59015000D02*
X156650000Y-59015000D01*
X156650000Y-50215000D02*
X159540000Y-50215000D01*
X150430000Y-49635000D02*
X150430000Y-58315000D01*
X156650000Y-48935000D02*
X156650000Y-50215000D01*
X158250000Y-48935000D02*
X156650000Y-48935000D01*
X154000000Y-47915000D02*
X158250000Y-47915000D01*
X158250000Y-47915000D02*
X158250000Y-48935000D01*
D13*
%TO.C,U1*%
X150810690Y-81004410D02*
X171138310Y-81004410D01*
X171138310Y-81004410D02*
X171138310Y-63206630D01*
X150140130Y-80333850D02*
X150810690Y-81004410D01*
D14*
X150056310Y-77321410D02*
X150056310Y-75543410D01*
X152723310Y-77321410D02*
X150056310Y-77321410D01*
X152723310Y-77321410D02*
X152723310Y-75543410D01*
X154120310Y-77321410D02*
X154120310Y-75543410D01*
X156789850Y-77321410D02*
X154120310Y-77321410D01*
X156789850Y-77321410D02*
X156789850Y-75543410D01*
D13*
X156068490Y-76610210D02*
X148715190Y-76610210D01*
X148715190Y-76605130D02*
X148715190Y-67610990D01*
D14*
X152723310Y-75543410D02*
X150056310Y-75543410D01*
X156789850Y-75543410D02*
X154120310Y-75543410D01*
X150818310Y-74654410D02*
X150818310Y-69574410D01*
X153358310Y-74654410D02*
X150818310Y-74654410D01*
X153358310Y-74654410D02*
X153358310Y-69574410D01*
X153358310Y-69574410D02*
X150818310Y-69574410D01*
X150056310Y-68685410D02*
X150056310Y-66907410D01*
X152723310Y-68685410D02*
X150056310Y-68685410D01*
X152723310Y-68685410D02*
X152723310Y-66907410D01*
X154120310Y-68685410D02*
X154120310Y-66907410D01*
X156789850Y-68685410D02*
X154120310Y-68685410D01*
X156789850Y-68685410D02*
X156789850Y-66907410D01*
D13*
X148715190Y-67610990D02*
X156068490Y-67610990D01*
X156068490Y-67610990D02*
X156068490Y-76610210D01*
D14*
X152723310Y-66907410D02*
X150056310Y-66907410D01*
X156789850Y-66907410D02*
X154120310Y-66907410D01*
D13*
X150140130Y-63206630D02*
X150140130Y-80333850D01*
X171138310Y-63206630D02*
X150140130Y-63206630D01*
D15*
X153104310Y-81893410D02*
G75*
G03*
X153104310Y-81893410I-127000J0D01*
G01*
D12*
%TO.C,J2*%
X158250000Y-33040000D02*
X158250000Y-34060000D01*
X154000000Y-33040000D02*
X158250000Y-33040000D01*
X158250000Y-34060000D02*
X156650000Y-34060000D01*
X156650000Y-34060000D02*
X156650000Y-35340000D01*
X150430000Y-34760000D02*
X150430000Y-43440000D01*
X156650000Y-35340000D02*
X159540000Y-35340000D01*
X158250000Y-44140000D02*
X156650000Y-44140000D01*
X156650000Y-44140000D02*
X156650000Y-42860000D01*
X158250000Y-45160000D02*
X158250000Y-44140000D01*
X154000000Y-45160000D02*
X158250000Y-45160000D01*
%TO.C,R1*%
X180069258Y-72150500D02*
X179594742Y-72150500D01*
X180069258Y-71105500D02*
X179594742Y-71105500D01*
%TO.C,D1*%
X221328000Y-71330000D02*
X214028000Y-71330000D01*
X221328000Y-65830000D02*
X214028000Y-65830000D01*
X214028000Y-65830000D02*
X214028000Y-66980000D01*
%TO.C,U2*%
X167005000Y-53995000D02*
X170455000Y-53995000D01*
X167005000Y-53995000D02*
X165055000Y-53995000D01*
X167005000Y-48875000D02*
X168955000Y-48875000D01*
X167005000Y-48875000D02*
X165055000Y-48875000D01*
%TO.C,U4*%
X181442000Y-63918000D02*
X181442000Y-64093000D01*
X180767000Y-66638000D02*
X181442000Y-66638000D01*
X180767000Y-63918000D02*
X181442000Y-63918000D01*
X178897000Y-66638000D02*
X178222000Y-66638000D01*
X178897000Y-63918000D02*
X178222000Y-63918000D01*
X178222000Y-66638000D02*
X178222000Y-66463000D01*
X178222000Y-63918000D02*
X178222000Y-64093000D01*
%TO.C,J3*%
X219262000Y-60512000D02*
X219262000Y-59942000D01*
X219262000Y-60512000D02*
X216602000Y-60512000D01*
X219262000Y-59942000D02*
X220782000Y-59942000D01*
X219262000Y-58422000D02*
X219262000Y-54862000D01*
X219262000Y-53342000D02*
X219262000Y-49782000D01*
X219262000Y-48262000D02*
X219262000Y-45152000D01*
X219262000Y-45152000D02*
X216602000Y-45152000D01*
X216602000Y-60512000D02*
X216602000Y-57402000D01*
X216602000Y-55882000D02*
X216602000Y-52322000D01*
X216602000Y-50802000D02*
X216602000Y-47242000D01*
X216602000Y-45722000D02*
X216602000Y-45152000D01*
%TO.C,C1*%
X177277500Y-53831258D02*
X177277500Y-53356742D01*
X178322500Y-53831258D02*
X178322500Y-53356742D01*
%TO.C,U5*%
X181820000Y-45919000D02*
X180580000Y-45919000D01*
X180580000Y-45919000D02*
X180580000Y-47159000D01*
X189440000Y-46159000D02*
X180820000Y-46159000D01*
X189440000Y-46159000D02*
X189440000Y-57880000D01*
X180820000Y-46159000D02*
X180820000Y-57880000D01*
X189440000Y-57880000D02*
X180820000Y-57880000D01*
%TO.C,R2*%
X180069258Y-68819500D02*
X179594742Y-68819500D01*
X180069258Y-69864500D02*
X179594742Y-69864500D01*
%TD*%
M02*
